<svg width="192" height="53" viewBox="0 0 192 53" fill="none" xmlns="http://www.w3.org/2000/svg">
<path d="M55.5273 33V11.048H64.2313C65.4899 11.048 66.6739 11.2507 67.7833 11.656C68.8926 12.04 69.8633 12.6373 70.6953 13.448C71.5486 14.2373 72.2099 15.24 72.6793 16.456C73.1486 17.6507 73.3833 19.0693 73.3833 20.712V22.76C73.3833 24.3813 73.1486 25.832 72.6793 27.112C72.2099 28.3707 71.5486 29.4373 70.6953 30.312C69.8633 31.1867 68.8926 31.8587 67.7833 32.328C66.6739 32.776 65.4899 33 64.2313 33H55.5273ZM60.1993 29.416H63.8473C64.7219 29.416 65.5006 29.224 66.1833 28.84C66.8873 28.4347 67.4419 27.816 67.8473 26.984C68.2526 26.152 68.4553 25.0747 68.4553 23.752V19.944C68.4553 18.6427 68.2526 17.608 67.8473 16.84C67.4419 16.0507 66.8873 15.4853 66.1833 15.144C65.5006 14.7813 64.7219 14.6 63.8473 14.6H60.1993V29.416ZM84.28 33.32C82.7867 33.32 81.4427 32.9893 80.248 32.328C79.0747 31.6453 78.1467 30.6853 77.464 29.448C76.8027 28.2107 76.472 26.76 76.472 25.096V24.52C76.472 22.8347 76.8027 21.384 77.464 20.168C78.1467 18.952 79.0747 18.0133 80.248 17.352C81.4213 16.6693 82.7547 16.328 84.248 16.328H84.888C86.4027 16.328 87.7467 16.6693 88.92 17.352C90.0933 18.0133 91.0107 18.952 91.672 20.168C92.3547 21.384 92.696 22.8347 92.696 24.52V25.096C92.696 26.7813 92.3547 28.2427 91.672 29.48C91.0107 30.696 90.0933 31.6453 88.92 32.328C87.7467 32.9893 86.4133 33.32 84.92 33.32H84.28ZM84.568 30.44C85.2293 30.44 85.816 30.2907 86.328 29.992C86.8613 29.672 87.2773 29.2027 87.576 28.584C87.896 27.9653 88.056 27.2293 88.056 26.376V23.24C88.056 22.3653 87.896 21.6293 87.576 21.032C87.2773 20.4347 86.8613 19.976 86.328 19.656C85.816 19.336 85.2293 19.176 84.568 19.176C83.928 19.176 83.3413 19.336 82.808 19.656C82.2747 19.976 81.848 20.4347 81.528 21.032C81.2293 21.6293 81.08 22.3653 81.08 23.24V26.376C81.08 27.2293 81.2293 27.9653 81.528 28.584C81.848 29.2027 82.2747 29.672 82.808 29.992C83.3413 30.2907 83.928 30.44 84.568 30.44ZM102.957 33.32C101.57 33.32 100.312 32.9787 99.181 32.296C98.0717 31.6133 97.197 30.6747 96.557 29.48C95.917 28.264 95.597 26.8773 95.597 25.32V24.328C95.597 23.1547 95.789 22.088 96.173 21.128C96.5783 20.1467 97.1223 19.2933 97.805 18.568C98.4877 17.8427 99.2877 17.288 100.205 16.904C101.122 16.52 102.104 16.328 103.149 16.328H103.757C105.186 16.328 106.424 16.616 107.469 17.192C108.536 17.7467 109.346 18.536 109.901 19.56C110.477 20.5627 110.765 21.7467 110.765 23.112H106.957C106.957 22.2373 106.818 21.512 106.541 20.936C106.285 20.36 105.912 19.9227 105.421 19.624C104.93 19.3253 104.344 19.176 103.661 19.176C102.68 19.176 101.858 19.5173 101.197 20.2C100.536 20.8613 100.205 21.8427 100.205 23.144V26.44C100.205 27.72 100.514 28.712 101.133 29.416C101.773 30.0987 102.626 30.44 103.693 30.44C104.44 30.44 105.069 30.312 105.581 30.056C106.093 29.8 106.477 29.384 106.733 28.808C107.01 28.232 107.149 27.464 107.149 26.504H110.765C110.765 27.9547 110.456 29.192 109.837 30.216C109.218 31.2187 108.365 31.9867 107.277 32.52C106.189 33.0533 104.952 33.32 103.565 33.32H102.957ZM121.857 33.32C120.299 33.32 118.87 33.096 117.569 32.648C116.289 32.1787 115.254 31.4533 114.465 30.472C113.697 29.4907 113.313 28.2 113.313 26.6C113.313 26.472 113.313 26.3547 113.313 26.248C113.313 26.12 113.323 26.0027 113.345 25.896H117.665C117.643 26.0027 117.633 26.0987 117.633 26.184C117.633 26.2693 117.633 26.3653 117.633 26.472C117.633 27.1547 117.793 27.7413 118.113 28.232C118.454 28.7227 118.945 29.096 119.585 29.352C120.246 29.608 121.025 29.736 121.921 29.736C122.923 29.736 123.745 29.64 124.385 29.448C125.025 29.2347 125.505 28.9147 125.825 28.488C126.145 28.0613 126.305 27.5387 126.305 26.92C126.305 26.2587 126.07 25.736 125.601 25.352C125.153 24.9467 124.555 24.6267 123.809 24.392C123.083 24.1573 122.273 23.944 121.377 23.752C120.502 23.5387 119.617 23.2933 118.721 23.016C117.846 22.7387 117.035 22.3653 116.289 21.896C115.542 21.4267 114.945 20.808 114.497 20.04C114.049 19.272 113.825 18.2907 113.825 17.096C113.825 15.6667 114.209 14.4827 114.977 13.544C115.766 12.6053 116.801 11.9013 118.081 11.432C119.382 10.9627 120.79 10.728 122.305 10.728C123.819 10.728 125.195 10.952 126.433 11.4C127.67 11.8267 128.662 12.5093 129.409 13.448C130.155 14.3653 130.529 15.56 130.529 17.032V17.448H126.273V17.064C126.273 16.488 126.113 15.9867 125.793 15.56C125.494 15.1333 125.057 14.8133 124.481 14.6C123.905 14.3653 123.201 14.248 122.369 14.248C121.601 14.248 120.918 14.3333 120.321 14.504C119.745 14.6533 119.297 14.9093 118.977 15.272C118.657 15.6133 118.497 16.0613 118.497 16.616C118.497 17.256 118.721 17.768 119.169 18.152C119.617 18.536 120.214 18.8453 120.961 19.08C121.707 19.2933 122.529 19.5067 123.425 19.72C124.342 19.912 125.238 20.1467 126.113 20.424C127.009 20.68 127.83 21.0427 128.577 21.512C129.323 21.96 129.921 22.568 130.369 23.336C130.817 24.0827 131.041 25.0427 131.041 26.216C131.041 27.9227 130.635 29.2987 129.825 30.344C129.014 31.368 127.915 32.1253 126.529 32.616C125.163 33.0853 123.606 33.32 121.857 33.32ZM139.925 33.32C138.239 33.32 136.906 32.8613 135.925 31.944C134.965 31.0053 134.485 29.64 134.485 27.848V16.648H138.869V26.888C138.869 27.9973 139.093 28.808 139.541 29.32C140.01 29.832 140.693 30.088 141.589 30.088C142.186 30.088 142.73 29.9387 143.221 29.64C143.711 29.3413 144.106 28.9467 144.405 28.456C144.725 27.9653 144.885 27.4213 144.885 26.824V16.648H149.237V29.32C149.237 29.7253 149.333 30.0133 149.525 30.184C149.738 30.3547 149.962 30.44 150.197 30.44C150.41 30.44 150.623 30.408 150.837 30.344C151.071 30.2587 151.295 30.1627 151.509 30.056V32.616C151.231 32.8293 150.858 33 150.389 33.128C149.941 33.256 149.397 33.32 148.757 33.32C148.01 33.32 147.381 33.2027 146.869 32.968C146.378 32.7333 146.005 32.4133 145.749 32.008C145.493 31.5813 145.301 31.1333 145.173 30.664C144.639 31.496 143.903 32.1467 142.965 32.616C142.026 33.0853 141.013 33.32 139.925 33.32ZM154.614 33V16.648H157.878L158.422 19.048C158.464 18.9627 158.571 18.7813 158.742 18.504C158.934 18.2267 159.211 17.9173 159.574 17.576C159.936 17.2347 160.384 16.9467 160.918 16.712C161.472 16.456 162.134 16.328 162.902 16.328C164.011 16.328 164.907 16.5413 165.59 16.968C166.294 17.3947 166.816 17.992 167.158 18.76C167.499 19.528 167.67 20.424 167.67 21.448C167.67 21.6827 167.659 21.9387 167.638 22.216C167.616 22.4933 167.595 22.7387 167.574 22.952H163.926V22.28C163.926 21.8747 163.84 21.4693 163.67 21.064C163.52 20.6373 163.264 20.2853 162.902 20.008C162.56 19.7307 162.08 19.592 161.462 19.592C161.014 19.592 160.63 19.688 160.31 19.88C159.99 20.072 159.723 20.3173 159.51 20.616C159.318 20.8933 159.168 21.2133 159.062 21.576C158.976 21.9173 158.934 22.2373 158.934 22.536V33H154.614ZM177.624 33.32C176.088 33.32 174.722 33.0107 173.528 32.392C172.354 31.752 171.437 30.8347 170.776 29.64C170.114 28.424 169.784 26.952 169.784 25.224V24.424C169.784 22.696 170.125 21.2347 170.808 20.04C171.512 18.824 172.461 17.9067 173.656 17.288C174.872 16.648 176.248 16.328 177.784 16.328H178.296C179.746 16.328 181.005 16.6267 182.072 17.224C183.16 17.8 183.992 18.6213 184.568 19.688C185.165 20.7333 185.464 21.96 185.464 23.368V25.384H174.392C174.392 26.408 174.52 27.304 174.776 28.072C175.032 28.84 175.416 29.4267 175.928 29.832C176.44 30.2373 177.112 30.44 177.944 30.44C178.626 30.44 179.224 30.312 179.736 30.056C180.248 29.7787 180.653 29.3733 180.952 28.84C181.25 28.3067 181.4 27.656 181.4 26.888H185.464C185.464 28.1467 185.144 29.2667 184.504 30.248C183.864 31.208 182.978 31.9653 181.848 32.52C180.738 33.0533 179.448 33.32 177.976 33.32H177.624ZM174.424 23.144H181.176C181.176 21.8 180.877 20.808 180.28 20.168C179.704 19.5067 178.904 19.176 177.88 19.176C176.92 19.176 176.109 19.5173 175.448 20.2C174.808 20.8613 174.466 21.8427 174.424 23.144Z" fill="#000B6D"/>
<path d="M57.0182 47.8801V46.5613H58.9778C59.4742 46.5613 59.9084 46.4596 60.2807 46.2561C60.6529 46.0454 60.9412 45.7511 61.1455 45.3733C61.3572 44.9955 61.463 44.5486 61.463 44.0327C61.463 43.5313 61.3572 43.0954 61.1455 42.7248C60.9339 42.347 60.6419 42.0563 60.2697 41.8529C59.8975 41.6421 59.4669 41.5368 58.9778 41.5368H56.9853V40.218H58.9997C59.569 40.218 60.0945 40.3124 60.5762 40.5014C61.0653 40.6903 61.4886 40.9591 61.8462 41.3079C62.2111 41.6494 62.4921 42.0527 62.6892 42.5177C62.8936 42.9827 62.9957 43.4914 62.9957 44.0436C62.9957 44.5958 62.8936 45.1081 62.6892 45.5804C62.4921 46.0454 62.2148 46.4523 61.8572 46.8011C61.4995 47.1426 61.0762 47.4078 60.5872 47.5967C60.1055 47.7856 59.5836 47.8801 59.0216 47.8801H57.0182ZM56 47.8801V40.218H57.4889V47.8801H56ZM66.2371 47.9891C65.7554 47.9891 65.3211 47.8692 64.9343 47.6294C64.5474 47.3896 64.2445 47.0627 64.0256 46.6485C63.8066 46.2343 63.6971 45.7693 63.6971 45.2534C63.6971 44.7302 63.8066 44.2616 64.0256 43.8474C64.2445 43.4332 64.5474 43.1063 64.9343 42.8665C65.3211 42.6267 65.7554 42.5068 66.2371 42.5068C66.6166 42.5068 66.956 42.5831 67.2552 42.7357C67.5545 42.8883 67.7917 43.1026 67.9668 43.3787C68.1493 43.6476 68.2478 43.9528 68.2624 44.2943V46.1907C68.2478 46.5395 68.1493 46.8483 67.9668 47.1172C67.7917 47.386 67.5545 47.6004 67.2552 47.7602C66.956 47.9128 66.6166 47.9891 66.2371 47.9891ZM66.4998 46.6703C66.9012 46.6703 67.226 46.5395 67.4742 46.2779C67.7223 46.0091 67.8464 45.6639 67.8464 45.2425C67.8464 44.9664 67.788 44.723 67.6712 44.5123C67.5618 44.2943 67.4048 44.1272 67.2005 44.0109C67.0034 43.8874 66.7699 43.8256 66.4998 43.8256C66.2371 43.8256 66.0035 43.8874 65.7991 44.0109C65.6021 44.1272 65.4452 44.2943 65.3284 44.5123C65.2189 44.723 65.1642 44.9664 65.1642 45.2425C65.1642 45.5259 65.2189 45.7766 65.3284 45.9945C65.4452 46.2053 65.6021 46.3724 65.7991 46.4959C66.0035 46.6122 66.2371 46.6703 66.4998 46.6703ZM67.7698 47.8801V46.4632L67.9997 45.1771L67.7698 43.9128V42.6158H69.193V47.8801H67.7698ZM72.2791 48C71.9799 48 71.6843 47.96 71.3924 47.8801C71.1077 47.8002 70.845 47.6912 70.6041 47.5531C70.3633 47.4078 70.1552 47.2334 69.9801 47.03L70.834 46.1689C71.0165 46.3724 71.2282 46.525 71.469 46.6267C71.7099 46.7284 71.9763 46.7793 72.2682 46.7793C72.5018 46.7793 72.6769 46.7466 72.7937 46.6812C72.9178 46.6158 72.9798 46.5177 72.9798 46.3869C72.9798 46.2416 72.9141 46.129 72.7828 46.049C72.6587 45.9691 72.4945 45.9037 72.2901 45.8529C72.0857 45.7947 71.8704 45.733 71.6442 45.6676C71.4252 45.5949 71.2135 45.5041 71.0092 45.3951C70.8048 45.2788 70.637 45.1226 70.5056 44.9264C70.3815 44.723 70.3195 44.4614 70.3195 44.1417C70.3195 43.8074 70.3998 43.5168 70.5603 43.2698C70.7282 43.0227 70.9654 42.8302 71.2719 42.6921C71.5785 42.554 71.9398 42.485 72.3558 42.485C72.7937 42.485 73.1878 42.5613 73.5382 42.7139C73.8958 42.8665 74.1914 43.0954 74.425 43.4005L73.5601 44.2616C73.3995 44.0654 73.217 43.9237 73.0127 43.8365C72.8156 43.7493 72.6003 43.7057 72.3667 43.7057C72.1551 43.7057 71.9909 43.7384 71.8741 43.8038C71.7646 43.8692 71.7099 43.96 71.7099 44.0763C71.7099 44.2071 71.7719 44.3088 71.896 44.3815C72.0273 44.4541 72.1952 44.5195 72.3996 44.5777C72.6039 44.6285 72.8156 44.6903 73.0346 44.7629C73.2608 44.8283 73.4725 44.9228 73.6695 45.0463C73.8739 45.1698 74.0381 45.3333 74.1622 45.5368C74.2936 45.7402 74.3593 46.0018 74.3593 46.3215C74.3593 46.8374 74.1732 47.248 73.8009 47.5531C73.4287 47.851 72.9214 48 72.2791 48ZM78.8845 47.8801V44.861C78.8845 44.5486 78.786 44.2943 78.5889 44.0981C78.3918 43.9019 78.1364 43.8038 77.8226 43.8038C77.6182 43.8038 77.4357 43.8474 77.2752 43.9346C77.1146 44.0218 76.9869 44.1453 76.892 44.3052C76.8044 44.465 76.7606 44.6503 76.7606 44.861L76.2023 44.5777C76.2023 44.1635 76.2898 43.8038 76.465 43.4986C76.6402 43.1862 76.881 42.9428 77.1876 42.7684C77.5014 42.594 77.8591 42.5068 78.2605 42.5068C78.6619 42.5068 79.0159 42.594 79.3224 42.7684C79.6363 42.9428 79.8808 43.1826 80.0559 43.4877C80.2311 43.7929 80.3187 44.1453 80.3187 44.545V47.8801H78.8845ZM75.3264 47.8801V40H76.7606V47.8801H75.3264ZM84.4079 47.9891C84.0284 47.9891 83.6854 47.9092 83.3788 47.7493C83.0723 47.5895 82.8278 47.3715 82.6453 47.0954C82.4628 46.8193 82.3643 46.5104 82.3497 46.1689V44.2943C82.3643 43.9528 82.4628 43.6476 82.6453 43.3787C82.8351 43.1026 83.0832 42.8883 83.3898 42.7357C83.6963 42.5831 84.0357 42.5068 84.4079 42.5068C84.8969 42.5068 85.3349 42.6267 85.7217 42.8665C86.1085 43.1063 86.4114 43.4332 86.6304 43.8474C86.8566 44.2616 86.9698 44.7302 86.9698 45.2534C86.9698 45.7693 86.8566 46.2343 86.6304 46.6485C86.4114 47.0627 86.1085 47.3896 85.7217 47.6294C85.3349 47.8692 84.8969 47.9891 84.4079 47.9891ZM84.1671 46.6703C84.4298 46.6703 84.6597 46.6122 84.8568 46.4959C85.0612 46.3724 85.2181 46.2053 85.3276 45.9945C85.4443 45.7766 85.5027 45.5259 85.5027 45.2425C85.5027 44.9664 85.4443 44.723 85.3276 44.5123C85.2181 44.2943 85.0612 44.1272 84.8568 44.0109C84.6524 43.8874 84.4189 43.8256 84.1561 43.8256C83.8934 43.8256 83.6598 43.8874 83.4555 44.0109C83.2584 44.1272 83.1015 44.2943 82.9847 44.5123C82.8752 44.723 82.8205 44.9664 82.8205 45.2425C82.8205 45.5259 82.8752 45.7766 82.9847 45.9945C83.1015 46.2053 83.262 46.3724 83.4664 46.4959C83.6708 46.6122 83.9043 46.6703 84.1671 46.6703ZM81.4739 47.8801V40H82.9081V43.9128L82.6672 45.1771L82.8971 46.4632V47.8801H81.4739ZM90.3953 47.9891C89.8625 47.9891 89.3808 47.8692 88.9501 47.6294C88.5268 47.3824 88.1874 47.0518 87.932 46.6376C87.6838 46.2162 87.5598 45.7475 87.5598 45.2316C87.5598 44.7157 87.6838 44.2543 87.932 43.8474C88.1801 43.4332 88.5195 43.1063 88.9501 42.8665C89.3808 42.6194 89.8588 42.4959 90.3843 42.4959C90.9244 42.4959 91.4061 42.6194 91.8295 42.8665C92.2601 43.1063 92.5995 43.4332 92.8476 43.8474C93.0958 44.2543 93.2198 44.7157 93.2198 45.2316C93.2198 45.7475 93.0958 46.2162 92.8476 46.6376C92.5995 47.0518 92.2601 47.3824 91.8295 47.6294C91.4061 47.8692 90.9281 47.9891 90.3953 47.9891ZM90.3843 46.6594C90.6544 46.6594 90.8916 46.6013 91.0959 46.485C91.3076 46.3615 91.4682 46.1944 91.5777 45.9836C91.6944 45.7657 91.7528 45.5186 91.7528 45.2425C91.7528 44.9664 91.6944 44.723 91.5777 44.5123C91.4609 44.3015 91.3003 44.1381 91.0959 44.0218C90.8916 43.8983 90.6544 43.8365 90.3843 43.8365C90.1216 43.8365 89.888 43.8983 89.6837 44.0218C89.4793 44.1381 89.3187 44.3015 89.202 44.5123C89.0852 44.723 89.0268 44.9664 89.0268 45.2425C89.0268 45.5186 89.0852 45.7657 89.202 45.9836C89.3187 46.1944 89.4793 46.3615 89.6837 46.485C89.888 46.6013 90.1216 46.6594 90.3843 46.6594ZM96.3551 47.9891C95.8734 47.9891 95.4391 47.8692 95.0523 47.6294C94.6654 47.3896 94.3625 47.0627 94.1436 46.6485C93.9246 46.2343 93.8151 45.7693 93.8151 45.2534C93.8151 44.7302 93.9246 44.2616 94.1436 43.8474C94.3625 43.4332 94.6654 43.1063 95.0523 42.8665C95.4391 42.6267 95.8734 42.5068 96.3551 42.5068C96.7346 42.5068 97.074 42.5831 97.3732 42.7357C97.6725 42.8883 97.9097 43.1026 98.0848 43.3787C98.2673 43.6476 98.3658 43.9528 98.3804 44.2943V46.1907C98.3658 46.5395 98.2673 46.8483 98.0848 47.1172C97.9097 47.386 97.6725 47.6004 97.3732 47.7602C97.074 47.9128 96.7346 47.9891 96.3551 47.9891ZM96.6178 46.6703C97.0192 46.6703 97.344 46.5395 97.5922 46.2779C97.8403 46.0091 97.9644 45.6639 97.9644 45.2425C97.9644 44.9664 97.906 44.723 97.7893 44.5123C97.6798 44.2943 97.5229 44.1272 97.3185 44.0109C97.1214 43.8874 96.8879 43.8256 96.6178 43.8256C96.3551 43.8256 96.1215 43.8874 95.9171 44.0109C95.7201 44.1272 95.5632 44.2943 95.4464 44.5123C95.3369 44.723 95.2822 44.9664 95.2822 45.2425C95.2822 45.5259 95.3369 45.7766 95.4464 45.9945C95.5632 46.2053 95.7201 46.3724 95.9171 46.4959C96.1215 46.6122 96.3551 46.6703 96.6178 46.6703ZM97.8878 47.8801V46.4632L98.1177 45.1771L97.8878 43.9128V42.6158H99.311V47.8801H97.8878ZM100.579 47.8801V42.6158H102.013V47.8801H100.579ZM102.013 44.97L101.455 44.5995C101.521 43.9528 101.71 43.4441 102.024 43.0736C102.338 42.6957 102.791 42.5068 103.382 42.5068C103.637 42.5068 103.867 42.5504 104.072 42.6376C104.276 42.7175 104.462 42.852 104.63 43.0409L103.732 44.0654C103.652 43.9782 103.553 43.9128 103.437 43.8692C103.327 43.8256 103.199 43.8038 103.053 43.8038C102.747 43.8038 102.495 43.9019 102.298 44.0981C102.108 44.287 102.013 44.5777 102.013 44.97ZM107.217 47.9891C106.728 47.9891 106.29 47.8692 105.904 47.6294C105.517 47.3896 105.21 47.0627 104.984 46.6485C104.765 46.2343 104.655 45.7693 104.655 45.2534C104.655 44.7302 104.765 44.2616 104.984 43.8474C105.21 43.4332 105.513 43.1063 105.893 42.8665C106.279 42.6267 106.721 42.5068 107.217 42.5068C107.597 42.5068 107.936 42.5831 108.235 42.7357C108.542 42.8883 108.786 43.1026 108.969 43.3787C109.159 43.6476 109.261 43.9528 109.275 44.2943V46.1689C109.261 46.5104 109.162 46.8193 108.98 47.0954C108.797 47.3715 108.553 47.5895 108.246 47.7493C107.94 47.9092 107.597 47.9891 107.217 47.9891ZM107.458 46.6703C107.728 46.6703 107.962 46.6122 108.159 46.4959C108.363 46.3724 108.52 46.2053 108.63 45.9945C108.746 45.7766 108.805 45.5259 108.805 45.2425C108.805 44.9664 108.746 44.723 108.63 44.5123C108.52 44.2943 108.363 44.1272 108.159 44.0109C107.962 43.8874 107.732 43.8256 107.469 43.8256C107.199 43.8256 106.962 43.8874 106.757 44.0109C106.56 44.1344 106.403 44.3015 106.287 44.5123C106.177 44.723 106.122 44.9664 106.122 45.2425C106.122 45.5259 106.177 45.7766 106.287 45.9945C106.403 46.2053 106.564 46.3724 106.768 46.4959C106.973 46.6122 107.203 46.6703 107.458 46.6703ZM110.151 47.8801H108.728V46.4632L108.958 45.1771L108.717 43.9128V40H110.151V47.8801ZM114.807 45.0354V43.8256H116.591C116.825 43.8256 117.037 43.7784 117.226 43.6839C117.416 43.5895 117.566 43.455 117.675 43.2807C117.785 43.099 117.84 42.881 117.84 42.6267C117.84 42.3797 117.785 42.1653 117.675 41.9836C117.566 41.802 117.416 41.6639 117.226 41.5695C117.037 41.475 116.825 41.4278 116.591 41.4278H114.807V40.218H116.745C117.234 40.218 117.672 40.3161 118.058 40.5123C118.453 40.7084 118.763 40.9882 118.989 41.3515C119.215 41.7075 119.328 42.1326 119.328 42.6267C119.328 43.1208 119.215 43.5495 118.989 43.9128C118.763 44.2688 118.453 44.545 118.058 44.7411C117.672 44.9373 117.234 45.0354 116.745 45.0354H114.807ZM113.712 47.8801V40.218H115.201V47.8801H113.712ZM122.271 47.9891C121.789 47.9891 121.355 47.8692 120.968 47.6294C120.581 47.3896 120.278 47.0627 120.059 46.6485C119.84 46.2343 119.731 45.7693 119.731 45.2534C119.731 44.7302 119.84 44.2616 120.059 43.8474C120.278 43.4332 120.581 43.1063 120.968 42.8665C121.355 42.6267 121.789 42.5068 122.271 42.5068C122.65 42.5068 122.99 42.5831 123.289 42.7357C123.588 42.8883 123.825 43.1026 124 43.3787C124.183 43.6476 124.281 43.9528 124.296 44.2943V46.1907C124.281 46.5395 124.183 46.8483 124 47.1172C123.825 47.386 123.588 47.6004 123.289 47.7602C122.99 47.9128 122.65 47.9891 122.271 47.9891ZM122.533 46.6703C122.935 46.6703 123.26 46.5395 123.508 46.2779C123.756 46.0091 123.88 45.6639 123.88 45.2425C123.88 44.9664 123.822 44.723 123.705 44.5123C123.595 44.2943 123.438 44.1272 123.234 44.0109C123.037 43.8874 122.804 43.8256 122.533 43.8256C122.271 43.8256 122.037 43.8874 121.833 44.0109C121.636 44.1272 121.479 44.2943 121.362 44.5123C121.253 44.723 121.198 44.9664 121.198 45.2425C121.198 45.5259 121.253 45.7766 121.362 45.9945C121.479 46.2053 121.636 46.3724 121.833 46.4959C122.037 46.6122 122.271 46.6703 122.533 46.6703ZM123.803 47.8801V46.4632L124.033 45.1771L123.803 43.9128V42.6158H125.227V47.8801H123.803ZM130.054 47.8801V44.861C130.054 44.5486 129.955 44.2943 129.758 44.0981C129.561 43.9019 129.306 43.8038 128.992 43.8038C128.787 43.8038 128.605 43.8474 128.444 43.9346C128.284 44.0218 128.156 44.1453 128.061 44.3052C127.974 44.465 127.93 44.6503 127.93 44.861L127.372 44.5777C127.372 44.1635 127.459 43.8038 127.634 43.4986C127.817 43.1862 128.065 42.9428 128.379 42.7684C128.7 42.594 129.061 42.5068 129.463 42.5068C129.849 42.5068 130.196 42.6049 130.503 42.8011C130.809 42.99 131.05 43.2407 131.225 43.5531C131.4 43.8583 131.487 44.1889 131.487 44.545V47.8801H130.054ZM126.496 47.8801V42.6158H127.93V47.8801H126.496ZM135.172 47.9891C134.617 47.9891 134.125 47.8728 133.694 47.6403C133.263 47.4005 132.92 47.0736 132.665 46.6594C132.417 46.2452 132.293 45.7729 132.293 45.2425C132.293 44.7193 132.413 44.2543 132.654 43.8474C132.902 43.4332 133.238 43.1063 133.661 42.8665C134.084 42.6194 134.555 42.4959 135.073 42.4959C135.584 42.4959 136.033 42.6122 136.42 42.8447C136.814 43.0699 137.121 43.3824 137.34 43.782C137.566 44.1744 137.679 44.6213 137.679 45.1226C137.679 45.2171 137.672 45.3152 137.657 45.4169C137.65 45.5114 137.632 45.6203 137.602 45.7439L133.158 45.7548V44.6866L136.935 44.6757L136.354 45.1226C136.34 44.8102 136.281 44.5486 136.179 44.3379C136.084 44.1272 135.942 43.9673 135.752 43.8583C135.57 43.7421 135.343 43.6839 135.073 43.6839C134.789 43.6839 134.541 43.7493 134.329 43.8801C134.117 44.0036 133.953 44.1817 133.836 44.4142C133.727 44.6394 133.672 44.9083 133.672 45.2207C133.672 45.5404 133.73 45.8202 133.847 46.0599C133.971 46.2925 134.146 46.4741 134.373 46.6049C134.599 46.7284 134.862 46.7902 135.161 46.7902C135.431 46.7902 135.676 46.7466 135.895 46.6594C136.113 46.5649 136.303 46.4269 136.464 46.2452L137.307 47.0845C137.051 47.3824 136.738 47.6076 136.365 47.7602C136 47.9128 135.603 47.9891 135.172 47.9891ZM138.566 47.8801V40H140V47.8801H138.566Z" fill="#5F5F5F"/>
<path d="M44 29C44 40.045 35.045 49 24 49C12.955 49 4 40.045 4 29C4 17.955 12.955 9 24 9C35.045 9 44 17.955 44 29Z" fill="#5F6FFF"/>
<path d="M21 19H27V39H21V19Z" fill="white"/>
<path d="M14 26H34V32H14V26Z" fill="white"/>
</svg>
