<svg width="192" height="48" viewBox="0 0 192 48" fill="none" xmlns="http://www.w3.org/2000/svg">
<path d="M55.5273 35V13.048H64.2313C65.4899 13.048 66.6739 13.2507 67.7833 13.656C68.8926 14.04 69.8633 14.6373 70.6953 15.448C71.5486 16.2373 72.2099 17.24 72.6793 18.456C73.1486 19.6507 73.3833 21.0693 73.3833 22.712V24.76C73.3833 26.3813 73.1486 27.832 72.6793 29.112C72.2099 30.3707 71.5486 31.4373 70.6953 32.312C69.8633 33.1867 68.8926 33.8587 67.7833 34.328C66.6739 34.776 65.4899 35 64.2313 35H55.5273ZM60.1993 31.416H63.8473C64.7219 31.416 65.5006 31.224 66.1833 30.84C66.8873 30.4347 67.4419 29.816 67.8473 28.984C68.2526 28.152 68.4553 27.0747 68.4553 25.752V21.944C68.4553 20.6427 68.2526 19.608 67.8473 18.84C67.4419 18.0507 66.8873 17.4853 66.1833 17.144C65.5006 16.7813 64.7219 16.6 63.8473 16.6H60.1993V31.416ZM84.28 35.32C82.7867 35.32 81.4427 34.9893 80.248 34.328C79.0747 33.6453 78.1467 32.6853 77.464 31.448C76.8027 30.2107 76.472 28.76 76.472 27.096V26.52C76.472 24.8347 76.8027 23.384 77.464 22.168C78.1467 20.952 79.0747 20.0133 80.248 19.352C81.4213 18.6693 82.7547 18.328 84.248 18.328H84.888C86.4027 18.328 87.7467 18.6693 88.92 19.352C90.0933 20.0133 91.0107 20.952 91.672 22.168C92.3547 23.384 92.696 24.8347 92.696 26.52V27.096C92.696 28.7813 92.3547 30.2427 91.672 31.48C91.0107 32.696 90.0933 33.6453 88.92 34.328C87.7467 34.9893 86.4133 35.32 84.92 35.32H84.28ZM84.568 32.44C85.2293 32.44 85.816 32.2907 86.328 31.992C86.8613 31.672 87.2773 31.2027 87.576 30.584C87.896 29.9653 88.056 29.2293 88.056 28.376V25.24C88.056 24.3653 87.896 23.6293 87.576 23.032C87.2773 22.4347 86.8613 21.976 86.328 21.656C85.816 21.336 85.2293 21.176 84.568 21.176C83.928 21.176 83.3413 21.336 82.808 21.656C82.2747 21.976 81.848 22.4347 81.528 23.032C81.2293 23.6293 81.08 24.3653 81.08 25.24V28.376C81.08 29.2293 81.2293 29.9653 81.528 30.584C81.848 31.2027 82.2747 31.672 82.808 31.992C83.3413 32.2907 83.928 32.44 84.568 32.44ZM102.957 35.32C101.57 35.32 100.312 34.9787 99.181 34.296C98.0717 33.6133 97.197 32.6747 96.557 31.48C95.917 30.264 95.597 28.8773 95.597 27.32V26.328C95.597 25.1547 95.789 24.088 96.173 23.128C96.5783 22.1467 97.1223 21.2933 97.805 20.568C98.4877 19.8427 99.2877 19.288 100.205 18.904C101.122 18.52 102.104 18.328 103.149 18.328H103.757C105.186 18.328 106.424 18.616 107.469 19.192C108.536 19.7467 109.346 20.536 109.901 21.56C110.477 22.5627 110.765 23.7467 110.765 25.112H106.957C106.957 24.2373 106.818 23.512 106.541 22.936C106.285 22.36 105.912 21.9227 105.421 21.624C104.93 21.3253 104.344 21.176 103.661 21.176C102.68 21.176 101.858 21.5173 101.197 22.2C100.536 22.8613 100.205 23.8427 100.205 25.144V28.44C100.205 29.72 100.514 30.712 101.133 31.416C101.773 32.0987 102.626 32.44 103.693 32.44C104.44 32.44 105.069 32.312 105.581 32.056C106.093 31.8 106.477 31.384 106.733 30.808C107.01 30.232 107.149 29.464 107.149 28.504H110.765C110.765 29.9547 110.456 31.192 109.837 32.216C109.218 33.2187 108.365 33.9867 107.277 34.52C106.189 35.0533 104.952 35.32 103.565 35.32H102.957ZM121.857 35.32C120.299 35.32 118.87 35.096 117.569 34.648C116.289 34.1787 115.254 33.4533 114.465 32.472C113.697 31.4907 113.313 30.2 113.313 28.6C113.313 28.472 113.313 28.3547 113.313 28.248C113.313 28.12 113.323 28.0027 113.345 27.896H117.665C117.643 28.0027 117.633 28.0987 117.633 28.184C117.633 28.2693 117.633 28.3653 117.633 28.472C117.633 29.1547 117.793 29.7413 118.113 30.232C118.454 30.7227 118.945 31.096 119.585 31.352C120.246 31.608 121.025 31.736 121.921 31.736C122.923 31.736 123.745 31.64 124.385 31.448C125.025 31.2347 125.505 30.9147 125.825 30.488C126.145 30.0613 126.305 29.5387 126.305 28.92C126.305 28.2587 126.07 27.736 125.601 27.352C125.153 26.9467 124.555 26.6267 123.809 26.392C123.083 26.1573 122.273 25.944 121.377 25.752C120.502 25.5387 119.617 25.2933 118.721 25.016C117.846 24.7387 117.035 24.3653 116.289 23.896C115.542 23.4267 114.945 22.808 114.497 22.04C114.049 21.272 113.825 20.2907 113.825 19.096C113.825 17.6667 114.209 16.4827 114.977 15.544C115.766 14.6053 116.801 13.9013 118.081 13.432C119.382 12.9627 120.79 12.728 122.305 12.728C123.819 12.728 125.195 12.952 126.433 13.4C127.67 13.8267 128.662 14.5093 129.409 15.448C130.155 16.3653 130.529 17.56 130.529 19.032V19.448H126.273V19.064C126.273 18.488 126.113 17.9867 125.793 17.56C125.494 17.1333 125.057 16.8133 124.481 16.6C123.905 16.3653 123.201 16.248 122.369 16.248C121.601 16.248 120.918 16.3333 120.321 16.504C119.745 16.6533 119.297 16.9093 118.977 17.272C118.657 17.6133 118.497 18.0613 118.497 18.616C118.497 19.256 118.721 19.768 119.169 20.152C119.617 20.536 120.214 20.8453 120.961 21.08C121.707 21.2933 122.529 21.5067 123.425 21.72C124.342 21.912 125.238 22.1467 126.113 22.424C127.009 22.68 127.83 23.0427 128.577 23.512C129.323 23.96 129.921 24.568 130.369 25.336C130.817 26.0827 131.041 27.0427 131.041 28.216C131.041 29.9227 130.635 31.2987 129.825 32.344C129.014 33.368 127.915 34.1253 126.529 34.616C125.163 35.0853 123.606 35.32 121.857 35.32ZM139.925 35.32C138.239 35.32 136.906 34.8613 135.925 33.944C134.965 33.0053 134.485 31.64 134.485 29.848V18.648H138.869V28.888C138.869 29.9973 139.093 30.808 139.541 31.32C140.01 31.832 140.693 32.088 141.589 32.088C142.186 32.088 142.73 31.9387 143.221 31.64C143.711 31.3413 144.106 30.9467 144.405 30.456C144.725 29.9653 144.885 29.4213 144.885 28.824V18.648H149.237V31.32C149.237 31.7253 149.333 32.0133 149.525 32.184C149.738 32.3547 149.962 32.44 150.197 32.44C150.41 32.44 150.623 32.408 150.837 32.344C151.071 32.2587 151.295 32.1627 151.509 32.056V34.616C151.231 34.8293 150.858 35 150.389 35.128C149.941 35.256 149.397 35.32 148.757 35.32C148.01 35.32 147.381 35.2027 146.869 34.968C146.378 34.7333 146.005 34.4133 145.749 34.008C145.493 33.5813 145.301 33.1333 145.173 32.664C144.639 33.496 143.903 34.1467 142.965 34.616C142.026 35.0853 141.013 35.32 139.925 35.32ZM154.614 35V18.648H157.878L158.422 21.048C158.464 20.9627 158.571 20.7813 158.742 20.504C158.934 20.2267 159.211 19.9173 159.574 19.576C159.936 19.2347 160.384 18.9467 160.918 18.712C161.472 18.456 162.134 18.328 162.902 18.328C164.011 18.328 164.907 18.5413 165.59 18.968C166.294 19.3947 166.816 19.992 167.158 20.76C167.499 21.528 167.67 22.424 167.67 23.448C167.67 23.6827 167.659 23.9387 167.638 24.216C167.616 24.4933 167.595 24.7387 167.574 24.952H163.926V24.28C163.926 23.8747 163.84 23.4693 163.67 23.064C163.52 22.6373 163.264 22.2853 162.902 22.008C162.56 21.7307 162.08 21.592 161.462 21.592C161.014 21.592 160.63 21.688 160.31 21.88C159.99 22.072 159.723 22.3173 159.51 22.616C159.318 22.8933 159.168 23.2133 159.062 23.576C158.976 23.9173 158.934 24.2373 158.934 24.536V35H154.614ZM177.624 35.32C176.088 35.32 174.722 35.0107 173.528 34.392C172.354 33.752 171.437 32.8347 170.776 31.64C170.114 30.424 169.784 28.952 169.784 27.224V26.424C169.784 24.696 170.125 23.2347 170.808 22.04C171.512 20.824 172.461 19.9067 173.656 19.288C174.872 18.648 176.248 18.328 177.784 18.328H178.296C179.746 18.328 181.005 18.6267 182.072 19.224C183.16 19.8 183.992 20.6213 184.568 21.688C185.165 22.7333 185.464 23.96 185.464 25.368V27.384H174.392C174.392 28.408 174.52 29.304 174.776 30.072C175.032 30.84 175.416 31.4267 175.928 31.832C176.44 32.2373 177.112 32.44 177.944 32.44C178.626 32.44 179.224 32.312 179.736 32.056C180.248 31.7787 180.653 31.3733 180.952 30.84C181.25 30.3067 181.4 29.656 181.4 28.888H185.464C185.464 30.1467 185.144 31.2667 184.504 32.248C183.864 33.208 182.978 33.9653 181.848 34.52C180.738 35.0533 179.448 35.32 177.976 35.32H177.624ZM174.424 25.144H181.176C181.176 23.8 180.877 22.808 180.28 22.168C179.704 21.5067 178.904 21.176 177.88 21.176C176.92 21.176 176.109 21.5173 175.448 22.2C174.808 22.8613 174.466 23.8427 174.424 25.144Z" fill="#000B6D"/>
<path d="M44 24C44 35.045 35.045 44 24 44C12.955 44 4 35.045 4 24C4 12.955 12.955 4 24 4C35.045 4 44 12.955 44 24Z" fill="#5F6FFF"/>
<path d="M21 14H27V34H21V14Z" fill="white"/>
<path d="M14 21H34V27H14V21Z" fill="white"/>
</svg>
