<?xml version="1.0" encoding="UTF-8"?>
<svg version="1.1" xmlns="http://www.w3.org/2000/svg" width="427" height="155">
<path d="M0 0 C66.99 0 133.98 0 203 0 C205.31 4.62 207.62 9.24 210 14 C214.38838592 19.87878113 218.9360155 23.6466629 225.05859375 27.65234375 C225.69925781 28.09707031 226.33992187 28.54179687 227 29 C227 29.33 227 29.66 227 30 C152.09 30 77.18 30 0 30 C0 20.1 0 10.2 0 0 Z " fill="#F49635" transform="translate(0,125)"/>
<path d="M0 0 C1.39699592 2.79399184 0.51092503 3.99949003 -0.4375 6.9375 C-3.29676541 17.09053967 -2.63654232 25.50612763 2 35 C3.84217681 38.23654134 5.79832941 41.40155517 7.77099609 44.55981445 C10.6584365 49.23664603 12.59385759 53.65665884 14 59 C15.29855607 56.79547458 16.58888195 54.58676704 17.875 52.375 C18.23980469 51.75753906 18.60460937 51.14007813 18.98046875 50.50390625 C24.17766535 41.52693031 25.43075685 32.96356803 23.32421875 22.7109375 C22.61588135 20.11258134 21.85920599 17.55204637 21 15 C27.28755603 17.25057934 30.01442747 24.44175327 33 30 C35.21662538 34.72729289 36.03323372 39.10692568 36.109375 44.3046875 C35.87691909 54.52320238 35.87691909 54.52320238 40.8125 63.0625 C41.53179687 63.71734375 42.25109375 64.3721875 42.9921875 65.046875 C48.38018556 70.28811825 50.0933725 78.21408406 50.29248047 85.48242188 C50.41594219 98.31039567 47.10559376 107.52687553 38.1875 116.90625 C29.53573635 125.13937993 19.36345408 127.39415581 7.73828125 127.2734375 C-3.22623892 126.47143498 -11.6841413 121.85469818 -19.00390625 113.79296875 C-27.43601211 103.45967827 -28.93991646 93.09263913 -28 80 C-25.65275091 69.20265419 -19.54171371 61.67163437 -11 55 C-11.51118336 52.18849151 -12.14376776 49.54815846 -13.01171875 46.8203125 C-16.08948395 34.9228644 -14.4121598 22.94548737 -9 12 C-6.37639383 7.6479666 -3.59870036 3.59870036 0 0 Z " fill="#F38C35" transform="translate(238,23)"/>
<path d="M0 0 C43.56 0 87.12 0 132 0 C132 9.9 132 19.8 132 30 C80.52 30 29.04 30 -24 30 C-21.16213372 27.16213372 -18.87363984 25.12736884 -15.6875 22.875 C-7.64960761 16.68793809 -4.09021352 9.20298041 0 0 Z " fill="#F59735" transform="translate(295,125)"/>
<path d="M0 0 C1.39699592 2.79399184 0.51092503 3.99949003 -0.4375 6.9375 C-3.29676541 17.09053967 -2.63654232 25.50612763 2 35 C3.84217681 38.23654134 5.79832941 41.40155517 7.77099609 44.55981445 C10.6584365 49.23664603 12.59385759 53.65665884 14 59 C15.29855607 56.79547458 16.58888195 54.58676704 17.875 52.375 C18.23980469 51.75753906 18.60460937 51.14007813 18.98046875 50.50390625 C24.17766535 41.52693031 25.43075685 32.96356803 23.32421875 22.7109375 C22.61588135 20.11258134 21.85920599 17.55204637 21 15 C27.77837553 17.42626417 31.25550279 26.33828309 34.18359375 32.484375 C37.63474431 42.06173061 37.59242256 54.10106001 33.875 63.5625 C31.85449358 67.75718515 29.40190574 71.27889832 26.5546875 74.9375 C17.59650091 86.82172743 17.97549641 98.57088569 18 113 C17.34 113 16.68 113 16 113 C16 112.34 16 111.68 16 111 C15.34 111 14.68 111 14 111 C13.80664062 110.32453125 13.61328125 109.6490625 13.4140625 108.953125 C13.02347656 107.61507812 13.02347656 107.61507812 12.625 106.25 C12.36976563 105.36828125 12.11453125 104.4865625 11.8515625 103.578125 C11.0790066 101.23919428 10.16374324 99.16557438 9 97 C8.01 97 7.02 97 6 97 C5.34 98.32 4.68 99.64 4 101 C4.00112793 100.27522461 4.00225586 99.55044922 4.00341797 98.80371094 C4.42824822 79.86033204 4.42824822 79.86033204 -3 63 C-3.474375 62.2678125 -3.94875 61.535625 -4.4375 60.78125 C-6.69643579 57.33495945 -6.69643579 57.33495945 -10 55 C-15.69626174 43.69063362 -15.83582992 30.42529865 -11.9375 18.5625 C-9.12699546 11.60047876 -5.3252208 5.3252208 0 0 Z " fill="#019ADD" transform="translate(238,23)"/>
<path d="M0 0 C1.39699592 2.79399184 0.51092503 3.99949003 -0.4375 6.9375 C-3.29579005 17.08707623 -2.64061341 25.51006834 2 35 C3.84548024 38.21331711 5.80725466 41.35410746 7.77099609 44.49609375 C11.32821608 50.2853241 14 56.09343623 14 63 C13.02059602 65.34205301 12.01965427 67.67518826 11 70 C9.78455984 74.09661451 9.81614425 78.13309234 9.8125 82.375 C9.79413086 83.48875 9.79413086 83.48875 9.77539062 84.625 C9.76332309 89.17848243 10.40342891 92.68214781 12 97 C11.625 99.375 11.625 99.375 11 101 C10.34 99.68 9.68 98.36 9 97 C8.01 97 7.02 97 6 97 C5.34 98.32 4.68 99.64 4 101 C4.00112793 100.27522461 4.00225586 99.55044922 4.00341797 98.80371094 C4.42824822 79.86033204 4.42824822 79.86033204 -3 63 C-3.474375 62.2678125 -3.94875 61.535625 -4.4375 60.78125 C-6.69643579 57.33495945 -6.69643579 57.33495945 -10 55 C-15.69626174 43.69063362 -15.83582992 30.42529865 -11.9375 18.5625 C-9.12699546 11.60047876 -5.3252208 5.3252208 0 0 Z " fill="#0297D9" transform="translate(238,23)"/>
<path d="M0 0 C3.08006839 1.51353265 4.26358842 3.76849094 6.10546875 6.62890625 C6.77707031 7.65242188 7.44867188 8.6759375 8.140625 9.73046875 C12.45106311 17.14760867 13.45519323 22.51135705 13.23046875 30.94140625 C13.21016602 32.39643555 13.21016602 32.39643555 13.18945312 33.88085938 C13.15435552 36.25579754 13.1051915 38.62955003 13.04296875 41.00390625 C11.39296875 41.00390625 9.74296875 41.00390625 8.04296875 41.00390625 C8.04296875 42.98390625 8.04296875 44.96390625 8.04296875 47.00390625 C7.38296875 47.00390625 6.72296875 47.00390625 6.04296875 47.00390625 C5.38296875 44.36390625 4.72296875 41.72390625 4.04296875 39.00390625 C3.71296875 39.66390625 3.38296875 40.32390625 3.04296875 41.00390625 C0.07296875 41.00390625 -2.89703125 41.00390625 -5.95703125 41.00390625 C-5.95703125 42.98390625 -5.95703125 44.96390625 -5.95703125 47.00390625 C-6.61703125 47.00390625 -7.27703125 47.00390625 -7.95703125 47.00390625 C-8.94703125 43.53890625 -8.94703125 43.53890625 -9.95703125 40.00390625 C-10.51390625 40.18953125 -11.07078125 40.37515625 -11.64453125 40.56640625 C-14.35865129 41.07988842 -16.28388608 40.60237159 -18.95703125 40.00390625 C-19.55425849 27.71097889 -18.69209055 17.71423841 -10.6015625 7.80078125 C-3.468488 0.00692313 -3.468488 0.00692313 0 0 Z " fill="#F8B82E" transform="translate(228.95703125,77.99609375)"/>
<path d="M0 0 C-0.48260624 10.52081606 -2.82781567 20.72778709 -5 31 C-4.22140625 30.03964844 -3.4428125 29.07929687 -2.640625 28.08984375 C-0.3104575 25.21571331 1.25764023 23.76548268 5 23 C12.56571322 23.02673397 12.56571322 23.02673397 15.75 25.1875 C19.13247089 30.09208279 17.29935911 38.31395441 16.3203125 43.828125 C15.79350641 46.226347 15.24093847 48.61913524 14.65625 51.00390625 C13.85735817 54.14004076 13.85735817 54.14004076 14 58 C15.96161898 57.81266183 15.96161898 57.81266183 18 57 C19.13070444 55.15272433 19.13070444 55.15272433 19.75 52.9375 C19.99234375 52.20402344 20.2346875 51.47054687 20.484375 50.71484375 C20.65453125 50.14894531 20.8246875 49.58304688 21 49 C21.99 49.33 22.98 49.66 24 50 C22.44208211 55.81369358 21.06462072 60.31663948 16 64 C12.16493284 65.14379196 10.16069323 65.5952273 6.5625 63.75 C2.38874862 56.40419758 5.42779974 47.05865659 7.34375 39.359375 C8.03374158 35.82727525 8.10933141 32.5897147 8 29 C5.61414097 28.14790749 4.42496587 27.83828779 2.01879883 28.75390625 C-3.97480533 32.45342924 -6.1997842 40.61752625 -8.1875 47 C-8.43435547 47.75539062 -8.68121094 48.51078125 -8.93554688 49.2890625 C-10.50124951 54.14900349 -11.80960985 59.03533967 -13 64 C-17.455 64.495 -17.455 64.495 -22 65 C-21.29358669 61.43711677 -20.58442345 57.87478498 -19.875 54.3125 C-19.65634277 53.21010986 -19.43768555 52.10771973 -19.21240234 50.97192383 C-17.95132311 44.64576008 -16.65185216 38.33000901 -15.296875 32.0234375 C-15.01561437 30.70405713 -14.73452566 29.38464011 -14.45361328 28.06518555 C-13.90713238 25.50780306 -13.35357538 22.95192101 -12.79248047 20.39770508 C-12.54385254 19.22876709 -12.29522461 18.0598291 -12.0390625 16.85546875 C-11.81428223 15.82059326 -11.58950195 14.78571777 -11.35791016 13.71948242 C-11.00723492 11.05497255 -10.9122709 9.45250795 -12 7 C-12.99 6.67 -13.98 6.34 -15 6 C-14.67 5.01 -14.34 4.02 -14 3 C-11.09375 2.05078125 -11.09375 2.05078125 -7.5 1.3125 C-5.72109375 0.93544922 -5.72109375 0.93544922 -3.90625 0.55078125 C-1 0 -1 0 0 0 Z " fill="#0369B0" transform="translate(70,48)"/>
<path d="M0 0 C-0.48305382 7.48733421 -1.91442502 14.55669421 -3.62792969 21.84130859 C-4.35549323 24.95781701 -5 27.78736135 -5 31 C-3.9171875 29.576875 -3.9171875 29.576875 -2.8125 28.125 C-0.4064542 25.29002124 1.25034224 23.76697545 5 23 C8.10458043 22.96160413 11.03806076 23.03487373 14 24 C16.67673782 26.71865541 17.43137016 28.72401649 17.4375 32.5 C17.22992365 41.45020393 14.92493648 50.29043037 13 59 C14.96428383 58.65496222 14.96428383 58.65496222 17 58 C18.35102993 55.9279446 18.35102993 55.9279446 19.25 53.4375 C19.58515625 52.61121094 19.9203125 51.78492188 20.265625 50.93359375 C20.50796875 50.29550781 20.7503125 49.65742187 21 49 C21.66 49 22.32 49 23 49 C22.59780148 54.83187853 21.86413931 58.36303283 18 63 C15.22328861 65.20221938 13.99463574 64.99963005 10.375 64.75 C7 64 7 64 5 62 C4.03528871 53.83127586 5.36401624 46.10117585 7.34375 38.19140625 C7.99351685 35.03152819 8.11639407 32.2153862 8 29 C5.760165 28.04979584 5.760165 28.04979584 3 28 C-7.80170373 35.47810258 -10.18994536 52.1132202 -13 64 C-17.455 64.495 -17.455 64.495 -22 65 C-20.29248845 53.52661421 -17.7862266 42.21600213 -15.375 30.875 C-14.74512705 27.90930811 -14.11602463 24.94346352 -13.4894104 21.9770813 C-13.10185696 20.14258161 -12.71241634 18.30847938 -12.32089233 16.474823 C-12.14716095 15.65281403 -11.97342957 14.83080505 -11.79443359 13.98388672 C-11.64058197 13.26063202 -11.48673035 12.53737732 -11.32821655 11.79220581 C-10.93995346 9.97578832 -10.93995346 9.97578832 -11 8 C-13.46326712 6.3553326 -13.46326712 6.3553326 -16 5 C-13.33588198 2.33588198 -11.09795829 2.1705771 -7.4375 1.375 C-5.67212891 0.98441406 -5.67212891 0.98441406 -3.87109375 0.5859375 C-1 0 -1 0 0 0 Z " fill="#0369AF" transform="translate(404,48)"/>
<path d="M0 0 C0.33 -0.99 0.66 -1.98 1 -3 C1.66 -3 2.32 -3 3 -3 C3.2700558 4.8316181 2.23107719 12.27279225 1 20 C0.01 20 -0.98 20 -2 20 C-2.17015625 19.20335938 -2.3403125 18.40671875 -2.515625 17.5859375 C-4.80508624 7.28121136 -4.80508624 7.28121136 -12 0 C-16.59271203 -0.73965025 -20.02462089 -0.60961194 -24 1.875 C-26.67211723 4.71412456 -26.98060689 5.46668945 -27.125 9.4375 C-27.1693943 12.9630948 -27.1693943 12.9630948 -26 16 C-24.31150783 17.05302344 -24.31150783 17.05302344 -22 18 C-19.51152581 19.23450563 -17.03461341 20.48373663 -14.5625 21.75 C-13.90701172 22.07226562 -13.25152344 22.39453125 -12.57617188 22.7265625 C-7.04886427 25.58723524 -3.0370884 28.88873481 -1 35 C-0.41523759 40.96457658 -1.52297084 45.19838831 -5 50 C-10.59433618 55.49725442 -16.53281447 57.97271726 -24.375 58.3125 C-28.6165687 58.24011828 -32.04669797 57.06956156 -35.9921875 55.60546875 C-38.63346933 54.80897326 -40.4196619 55.08929244 -43 56 C-44.485 56.495 -44.485 56.495 -46 57 C-44.65667575 37.3133515 -44.65667575 37.3133515 -41 30 C-40.01 30 -39.02 30 -38 30 C-38.02320313 30.556875 -38.04640625 31.11375 -38.0703125 31.6875 C-38.20064652 37.19876716 -37.5849487 41.71683765 -36 47 C-35.731875 47.94875 -35.46375 48.8975 -35.1875 49.875 C-34.14470259 52.12544524 -34.14470259 52.12544524 -32 53.3125 C-26.1049226 54.66345524 -20.98372437 54.99186218 -15.5 52.25 C-11.93353594 49.04018235 -11.21263307 47.40869412 -10.5 42.6875 C-11.1937944 37.57076628 -13.01482939 35.21384726 -17 32 C-20.23570727 30.1104767 -23.50494301 28.40279549 -26.87890625 26.7734375 C-30.74753074 24.57524536 -33.98078166 22.03843669 -36 18 C-36.41145444 13.52938922 -36.55468391 9.38670979 -34.875 5.1875 C-24.76982538 -6.60187039 -13.32263552 -5.77228309 0 0 Z " fill="#0368AE" transform="translate(46,55)"/>
<path d="M0 0 C3.27981751 2.06771104 4.84746007 3.77119011 7 7 C7.81404297 6.24203125 7.81404297 6.24203125 8.64453125 5.46875 C9.71767578 4.49421875 9.71767578 4.49421875 10.8125 3.5 C11.87404297 2.52546875 11.87404297 2.52546875 12.95703125 1.53125 C15 0 15 0 18 0 C17.33542587 3.71619005 16.32073601 7.17206126 15.125 10.75 C12.6226168 18.70465609 11.29915289 26.78187374 10 35 C11.939509 34.80811844 11.939509 34.80811844 14 34 C15.34231442 32.16016576 15.34231442 32.16016576 16.25 29.9375 C16.58515625 29.20402344 16.9203125 28.47054687 17.265625 27.71484375 C17.50796875 27.14894531 17.7503125 26.58304688 18 26 C18.66 26 19.32 26 20 26 C19.48687578 32.41405269 17.67464401 36.32535599 13.125 40.875 C10.18191745 42.43310253 8.28277584 42.47873814 5 42 C2.16508061 39.93127504 1.17530012 38.6427671 0.25 35.25 C0.12625 34.13625 0.12625 34.13625 0 33 C-0.680625 33.928125 -1.36125 34.85625 -2.0625 35.8125 C-4.96548497 39.24403965 -7.61275167 40.75694631 -12 42 C-15.93978583 42.28431444 -19.46298499 42.22014225 -22.6484375 39.69140625 C-26.51147193 35.21430566 -27.36588499 31.22601549 -27.2734375 25.53125 C-26.2721732 16.26240331 -21.07956821 9.18377262 -14.05078125 3.39453125 C-9.25873568 0.03350911 -5.81054067 -0.85729289 0 0 Z M-11 7 C-15.77513254 15.59799876 -19.76605306 25.11837568 -17 35 C-15.42182765 37.26929996 -15.42182765 37.26929996 -13 38 C-9.06654197 38 -6.40556349 36.30462588 -3.48828125 33.7265625 C2.26118574 27.05657717 4.3916895 19.01931033 4.27734375 10.41796875 C4.12024604 7.77667024 4.12024604 7.77667024 2.375 4.875 C0.10407483 2.7859695 0.10407483 2.7859695 -2.9375 2.4375 C-6.94105022 3.17284596 -8.24056514 3.95754618 -11 7 Z " fill="#0369B0" transform="translate(322,71)"/>
<path d="M0 0 C7.94832162 6.04072443 12.77839734 13.18361616 15 23 C15.21183593 25.82079784 15.19223595 28.61100411 15.125 31.4375 C15.11597656 32.16904297 15.10695313 32.90058594 15.09765625 33.65429688 C15.07436153 35.43634298 15.0385019 37.21821759 15 39 C12.69 39 10.38 39 8 39 C7.67 40.98 7.34 42.96 7 45 C6.34 44.34 5.68 43.68 5 43 C5 41.68 5 40.36 5 39 C1.37 39 -2.26 39 -6 39 C-6.33 40.98 -6.66 42.96 -7 45 C-9.29013653 41.5647952 -9.17842973 40.014669 -9 36 C-9.66 36 -10.32 36 -11 36 C-11 36.66 -11 37.32 -11 38 C-13.97 38.495 -13.97 38.495 -17 39 C-17.42795355 33.25951963 -16.19000673 29.51182127 -13.375 24.625 C-13.01253174 23.96943115 -12.65006348 23.3138623 -12.27661133 22.63842773 C-9.82548335 18.26461359 -7.12267601 14.11945527 -4.25390625 10.0078125 C-2.27251634 6.83511962 -1.16060025 3.54627854 0 0 Z " fill="#FBB82D" transform="translate(273,80)"/>
<path d="M0 0 C0.69802734 0.00386719 1.39605469 0.00773438 2.11523438 0.01171875 C2.80939453 0.00785156 3.50355469 0.00398437 4.21875 0 C9.42445449 0.01007881 9.42445449 0.01007881 11.67773438 1.13671875 C11.67773438 1.79671875 11.67773438 2.45671875 11.67773438 3.13671875 C10.02773437 3.13671875 8.37773437 3.13671875 6.67773438 3.13671875 C6.67773438 7.75671875 6.67773438 12.37671875 6.67773438 17.13671875 C5.68773437 17.13671875 4.69773438 17.13671875 3.67773438 17.13671875 C3.67773438 12.84671875 3.67773438 8.55671875 3.67773438 4.13671875 C2.02773437 4.13671875 0.37773437 4.13671875 -1.32226562 4.13671875 C-1.65226562 8.42671875 -1.98226562 12.71671875 -2.32226562 17.13671875 C-6.89013028 18.05029168 -11.02141655 18.25281441 -15.63476562 18.19921875 C-16.37533203 18.19470703 -17.11589844 18.19019531 -17.87890625 18.18554688 C-19.69339461 18.1738405 -21.50784097 18.15590773 -23.32226562 18.13671875 C-23.81726563 15.66171875 -23.81726563 15.66171875 -24.32226562 13.13671875 C-26.30226562 13.13671875 -28.28226563 13.13671875 -30.32226562 13.13671875 C-30.65226562 14.45671875 -30.98226562 15.77671875 -31.32226562 17.13671875 C-34.29226562 17.46671875 -37.26226562 17.79671875 -40.32226562 18.13671875 C-40.65226563 17.47671875 -40.98226562 16.81671875 -41.32226562 16.13671875 C-42.31226562 16.79671875 -43.30226563 17.45671875 -44.32226562 18.13671875 C-50.65559896 18.47005208 -50.65559896 18.47005208 -53.32226562 17.13671875 C-55.11473895 12.65553544 -55.13058544 7.03864774 -53.25976562 2.63671875 C-50.28820283 0.336154 -47.96889512 0.75286301 -44.32226562 1.13671875 C-41.88476562 2.13671875 -41.88476562 2.13671875 -40.32226562 3.13671875 C-40.32226562 2.47671875 -40.32226562 1.81671875 -40.32226562 1.13671875 C-38.34226563 1.13671875 -36.36226562 1.13671875 -34.32226562 1.13671875 C-33.99226563 3.77671875 -33.66226563 6.41671875 -33.32226562 9.13671875 C-33.23976562 8.55921875 -33.15726563 7.98171875 -33.07226562 7.38671875 C-32.09628362 4.45877274 -30.68715339 3.08427338 -28.32226562 1.13671875 C-27.33226562 1.13671875 -26.34226563 1.13671875 -25.32226562 1.13671875 C-24.65139443 2.75998745 -23.98569533 4.38539453 -23.32226562 6.01171875 C-22.76539063 7.36910156 -22.76539063 7.36910156 -22.19726562 8.75390625 C-21.32226562 11.13671875 -21.32226562 11.13671875 -21.32226562 13.13671875 C-20.66226563 13.13671875 -20.00226563 13.13671875 -19.32226562 13.13671875 C-19.33386719 12.52183594 -19.34546875 11.90695313 -19.35742188 11.2734375 C-19.36644531 10.46519531 -19.37546875 9.65695313 -19.38476562 8.82421875 C-19.39636719 8.02371094 -19.40796875 7.22320312 -19.41992188 6.3984375 C-19.32226562 4.13671875 -19.32226562 4.13671875 -18.32226562 1.13671875 C-17.00226563 1.13671875 -15.68226563 1.13671875 -14.32226562 1.13671875 C-14.32226562 5.42671875 -14.32226562 9.71671875 -14.32226562 14.13671875 C-11.68226563 14.13671875 -9.04226562 14.13671875 -6.32226562 14.13671875 C-6.33386719 13.20988281 -6.34546875 12.28304687 -6.35742188 11.328125 C-6.36644531 10.13058594 -6.37546875 8.93304688 -6.38476562 7.69921875 C-6.39636719 6.50425781 -6.40796875 5.30929688 -6.41992188 4.078125 C-6.25572765 -0.86740511 -4.47161468 0.00867433 0 0 Z " fill="#ECA861" transform="translate(169.322265625,130.86328125)"/>
<path d="M0 0 C1.7000338 2.55005069 1.38406338 4.70827112 1.125 7.6875 C0.125 8.6875 0.125 8.6875 -3.4375 8.75 C-4.571875 8.729375 -5.70625 8.70875 -6.875 8.6875 C-8.36 4.2325 -8.36 4.2325 -9.875 -0.3125 C-15.58837373 -0.90486584 -15.58837373 -0.90486584 -20.375 1.6875 C-20.87 2.3475 -21.365 3.0075 -21.875 3.6875 C-20.82663967 7.09846946 -19.68753223 7.7979172 -16.5390625 9.65234375 C-14.52362575 10.65807058 -12.49313439 11.62828155 -10.4609375 12.59960938 C-6.25047631 14.70069582 -3.46125989 16.59367152 -0.875 20.6875 C-0.25807387 24.92886712 -0.57949773 27.09649546 -2.5 30.9375 C-6.38792604 35.4393091 -11.15406667 37.32985022 -16.98828125 37.890625 C-23.5917008 38.03137284 -27.80763419 36.81106094 -33.3125 33 C-35.68560661 29.48780222 -35.21800591 26.87217209 -34.875 22.6875 C-33.875 21.6875 -33.875 21.6875 -30.9375 21.5 C-27.875 21.6875 -27.875 21.6875 -25.875 23.6875 C-25.27734375 25.81640625 -25.27734375 25.81640625 -24.8125 28.25 C-24.41022134 31.2552197 -24.41022134 31.2552197 -22.875 33.6875 C-21.4403041 33.78644455 -20.00059603 33.81720735 -18.5625 33.8125 C-17.78261719 33.81507812 -17.00273437 33.81765625 -16.19921875 33.8203125 C-13.96248461 33.69249912 -12.02233021 33.30663869 -9.875 32.6875 C-9.01849347 29.88704954 -9.01849347 29.88704954 -8.875 26.6875 C-12.24188558 22.35742943 -16.97136356 20.5282304 -21.83007812 18.33203125 C-25.43253833 16.63268503 -27.99903668 15.2757062 -29.875 11.6875 C-30.35105772 8.4944299 -29.92323569 5.73212427 -28.875 2.6875 C-21.44104049 -6.66803129 -9.29440408 -6.50608286 0 0 Z " fill="#0368AE" transform="translate(378.875,75.3125)"/>
<path d="M0 0 C2.0625 1.6875 2.0625 1.6875 4.0625 4.6875 C3.95246764 11.61953883 3.95246764 11.61953883 1.1875 14.9375 C-6.19943021 19.07418091 -13.52036498 21.13555672 -21.9375 21.6875 C-20.40718716 27.79952715 -20.40718716 27.79952715 -16.8125 32.8125 C-12.66400928 34.07508413 -9.10638291 33.83962764 -4.9375 32.6875 C-2.10884072 30.7429473 -2.10884072 30.7429473 0.0625 28.6875 C1.0525 28.6875 2.0425 28.6875 3.0625 28.6875 C1.44501568 34.34869511 -2.24754928 37.16077121 -7.25 40 C-13.73203302 41.65819449 -19.35213475 41.28319614 -25.2109375 37.9453125 C-29.30729591 34.96108759 -30.70324877 31.70816609 -31.8125 26.875 C-32.37953806 19.64180719 -30.56976829 13.29498267 -25.9375 7.6875 C-18.80452425 0.46307584 -10.11039858 -4.51741213 0 0 Z M-17.9375 6.6875 C-20.15870991 10.60203968 -21.9375 14.14572256 -21.9375 18.6875 C-15.53980352 18.39735503 -11.23288869 17.36185134 -5.9375 13.6875 C-3.48852153 10.01403229 -3.62212284 8.02393601 -3.9375 3.6875 C-5.80011651 1.43339841 -5.80011651 1.43339841 -8.6875 1.25 C-12.91610424 1.81923519 -15.29534735 3.45902696 -17.9375 6.6875 Z " fill="#0368AF" transform="translate(161.9375,72.3125)"/>
<path d="M0 0 C2.96450459 2.40865998 2.98071764 3.48038231 3.5 7.375 C3.40850011 10.7421958 2.82711047 12.47927799 0.4375 14.875 C-5.77506225 19.55359626 -15.33168762 21.625 -23 21.625 C-22.57316368 22.89945454 -22.13302798 24.16945882 -21.6875 25.4375 C-21.32205078 26.49904297 -21.32205078 26.49904297 -20.94921875 27.58203125 C-19.89305639 29.85517082 -18.97807449 31.08804541 -17 32.625 C-12.59829542 33.94970347 -8.95667976 34.00406179 -4.6875 32.3125 C-3.800625 31.755625 -2.91375 31.19875 -2 30.625 C-0.66666667 29.95833333 0.66666667 29.29166667 2 28.625 C1.17024781 33.66901986 -2.03947903 35.74153719 -6 38.625 C-10.14392802 40.96260042 -14.3314721 41.18522335 -19 40.625 C-24.87352702 38.8330765 -27.55151663 36.49344711 -31 31.625 C-33.06698024 25.42405927 -32.7152714 18.56582904 -30.09375 12.5703125 C-26.33365272 5.88271091 -21.8498458 1.74309788 -14.55859375 -0.75390625 C-9.30814498 -2.02844267 -4.95732956 -2.27210938 0 0 Z M-18 5.625 C-20.54808267 9.72074361 -22.39686785 13.79994277 -23 18.625 C-16.47211472 18.20431406 -11.67849623 17.16189395 -6.1875 13.375 C-4.26939764 10.54832284 -4.11999317 7.98480881 -4 4.625 C-4.91666667 2.54166667 -4.91666667 2.54166667 -7 1.625 C-12.08507076 0.85118489 -14.4939037 1.93437231 -18 5.625 Z " fill="#0369AF" transform="translate(202,72.375)"/>
<path d="M0 0 C2.90436867 2.82587222 4.15887273 5.10249939 5 9 C5.38671875 8.51789063 5.7734375 8.03578125 6.171875 7.5390625 C6.69265625 6.90742187 7.2134375 6.27578125 7.75 5.625 C8.26046875 4.99851562 8.7709375 4.37203125 9.296875 3.7265625 C12.02388776 0.96202204 14.21675522 0.07992294 18.0625 -0.3125 C21 0 21 0 22.9375 1.1875 C24 3 24 3 24 5.5625 C23 8 23 8 20.875 9.4375 C17.10916154 10.17429448 14.57421226 9.26148668 11 8 C2.0623207 16.12344157 0.40449173 29.66262001 -2 41 C-3.3921875 40.9690625 -3.3921875 40.9690625 -4.8125 40.9375 C-8.02286011 40.84230396 -8.02286011 40.84230396 -11 42 C-10.27062948 33.83274641 -8.52855806 26.05637405 -6.640625 18.08789062 C-6.30417969 16.6115918 -6.30417969 16.6115918 -5.9609375 15.10546875 C-5.75259277 14.22012451 -5.54424805 13.33478027 -5.32958984 12.42260742 C-4.99138869 9.93670366 -5.21360781 8.36020499 -6 6 C-9.06399866 6.66970511 -9.06399866 6.66970511 -10.16796875 8.84765625 C-10.50441406 9.57855469 -10.84085937 10.30945313 -11.1875 11.0625 C-11.53167969 11.79597656 -11.87585938 12.52945313 -12.23046875 13.28515625 C-12.48441406 13.85105469 -12.73835938 14.41695312 -13 15 C-13.66 15 -14.32 15 -15 15 C-14.56604691 9.57558638 -13.45068767 6.23941629 -10 2 C-6.81606328 -0.33488693 -3.87512491 -0.56512238 0 0 Z " fill="#0269B0" transform="translate(109,71)"/>
<path d="M0 0 C6.77837553 2.42626417 10.25550279 11.33828309 13.18359375 17.484375 C16.65117883 27.10733838 16.58942327 39.14099078 12.8125 48.625 C10.64310684 53.12494123 8.10657366 57.09459311 5 61 C4.67 59.68 4.34 58.36 4 57 C4.66 57 5.32 57 6 57 C6.144375 56.38125 6.28875 55.7625 6.4375 55.125 C7 53 7 53 8 51 C8.66 51 9.32 51 10 51 C9.505 49.515 9.505 49.515 9 48 C8.34 48 7.68 48 7 48 C7 47.34 7 46.68 7 46 C5.02 46 3.04 46 1 46 C1 44.68 1 43.36 1 42 C-1.97 42.495 -1.97 42.495 -5 43 C-3.32102366 38.63466152 -1.27423445 34.54889661 0.87890625 30.40234375 C5.35434583 20.81211607 3.24938606 9.65145026 0 0 Z " fill="#026CB3" transform="translate(259,38)"/>
<path d="M0 0 C0.66 0 1.32 0 2 0 C2 0.99 2 1.98 2 3 C5.3 3 8.6 3 12 3 C12.495 4.485 12.495 4.485 13 6 C10.69 6 8.38 6 6 6 C6 7.32 6 8.64 6 10 C7.98 10 9.96 10 12 10 C12 10.99 12 11.98 12 13 C10.02 13 8.04 13 6 13 C6 14.65 6 16.3 6 18 C8.31 18 10.62 18 13 18 C13 18.66 13 19.32 13 20 C9.37 20 5.74 20 2 20 C1.67 18.02 1.34 16.04 1 14 C-3.455 14.495 -3.455 14.495 -8 15 C-8 16.65 -8 18.3 -8 20 C-10.43816585 20.0809723 -12.87364384 20.14046972 -15.3125 20.1875 C-16.34793945 20.22520508 -16.34793945 20.22520508 -17.40429688 20.26367188 C-22.5175964 20.33777767 -22.5175964 20.33777767 -24.98046875 18.61328125 C-26 17 -26 17 -26 15 C-25.01 15 -24.02 15 -23 15 C-22.67 15.66 -22.34 16.32 -22 17 C-20.68 17 -19.36 17 -18 17 C-17.67 16.01 -17.34 15.02 -17 14 C-17.94875 13.690625 -18.8975 13.38125 -19.875 13.0625 C-23 12 -23 12 -25 11 C-25 9.02 -25 7.04 -25 5 C-21.98131566 3.49065783 -19.32702771 3.82489328 -16 4 C-15.01 4.66 -14.02 5.32 -13 6 C-13 5.01 -13 4.02 -13 3 C-8.71 3 -4.42 3 0 3 C0 2.01 0 1.02 0 0 Z " fill="#EB9C4A" transform="translate(100,128)"/>
<path d="M0 0 C0.99 0 1.98 0 3 0 C3 0.66 3 1.32 3 2 C4.093125 2.103125 5.18625 2.20625 6.3125 2.3125 C10 3 10 3 11.9375 4.1875 C13.52736542 6.89962336 13.39222062 8.92760514 13 12 C9.5647952 14.29013653 8.014669 14.17842973 4 14 C4 15.98 4 17.96 4 20 C1.72975032 20.08097324 -0.54132075 20.13917704 -2.8125 20.1875 C-4.70935547 20.23970703 -4.70935547 20.23970703 -6.64453125 20.29296875 C-10 20 -10 20 -11.94921875 18.61328125 C-13 17 -13 17 -13 15 C-12.01 15 -11.02 15 -10 15 C-9.67 15.66 -9.34 16.32 -9 17 C-7.68 17 -6.36 17 -5 17 C-4.67 16.01 -4.34 15.02 -4 14 C-5.134375 13.690625 -6.26875 13.38125 -7.4375 13.0625 C-11 12 -11 12 -12 11 C-12.14115161 8.32941149 -12.04247107 5.67567762 -12 3 C-11.21753906 2.95101562 -10.43507813 2.90203125 -9.62890625 2.8515625 C-8.61699219 2.77679688 -7.60507812 2.70203125 -6.5625 2.625 C-5.55316406 2.55539063 -4.54382813 2.48578125 -3.50390625 2.4140625 C-2.26447266 2.20910156 -2.26447266 2.20910156 -1 2 C-0.67 1.34 -0.34 0.68 0 0 Z " fill="#EB9E4F" transform="translate(358,128)"/>
<path d="M0 0 C2.4375 1 2.4375 1 4 2 C4 1.34 4 0.68 4 0 C5.98 0 7.96 0 10 0 C10.33 2.64 10.66 5.28 11 8 C11.33 6.68 11.66 5.36 12 4 C12.66 4 13.32 4 14 4 C13.52140759 5.60433809 13.04210442 7.20846416 12.5625 8.8125 C12.29566406 9.70582031 12.02882812 10.59914062 11.75390625 11.51953125 C11.19612127 13.35473055 10.60655425 15.18033726 10 17 C8.02 17 6.04 17 4 17 C3.67 16.34 3.34 15.68 3 15 C2.01 15.66 1.02 16.32 0 17 C-6.33333333 17.33333333 -6.33333333 17.33333333 -9 16 C-10.79247332 11.51881669 -10.80831982 5.90192899 -8.9375 1.5 C-5.9659372 -0.80056475 -3.64662949 -0.38385574 0 0 Z " fill="#EB9F4D" transform="translate(125,132)"/>
<path d="M0 0 C0.99 0.33 1.98 0.66 3 1 C3.94921875 3.06640625 3.94921875 3.06640625 4.6875 5.5625 C4.93886719 6.38878906 5.19023437 7.21507812 5.44921875 8.06640625 C5.63097656 8.70449219 5.81273437 9.34257812 6 10 C3 12 3 12 0.5625 11.875 C-2.17783478 11.7355434 -2.17783478 11.7355434 -4.1875 14 C-4.785625 14.66 -5.38375 15.32 -6 16 C-6.66 16 -7.32 16 -8 16 C-8.33 16.66 -8.66 17.32 -9 18 C-10.32 18 -11.64 18 -13 18 C-13.33 19.32 -13.66 20.64 -14 22 C-15.32 22.33 -16.64 22.66 -18 23 C-18 23.66 -18 24.32 -18 25 C-18.66 25 -19.32 25 -20 25 C-20 25.99 -20 26.98 -20 28 C-22.60582371 28.93065133 -23.64198224 29.14917407 -26.25 28.0625 C-27.11625 27.5365625 -27.11625 27.5365625 -28 27 C-26.68 28.65 -25.36 30.3 -24 32 C-28.26826873 32 -28.93882432 31.62386487 -32 29 C-31.67 27.68 -31.34 26.36 -31 25 C-30.34 25 -29.68 25 -29 25 C-28.67 24.01 -28.34 23.02 -28 22 C-26.02 23.32 -24.04 24.64 -22 26 C-22.75150023 22.72226496 -22.75150023 22.72226496 -26 21 C-26 20.34 -26 19.68 -26 19 C-24.68 19.33 -23.36 19.66 -22 20 C-22 19.67 -22 19.34 -22 19 C-21.67449498 17.33178677 -21.34153937 15.66500443 -21 14 C-19.68 14 -18.36 14 -17 14 C-17 12.35 -17 10.7 -17 9 C-15.68 9.33 -14.36 9.66 -13 10 C-12.67 11.65 -12.34 13.3 -12 15 C-11.67 14.67 -11.34 14.34 -11 14 C-11 13.01 -11 12.02 -11 11 C-11 8 -11 8 -10 7 C-9.21625 7.061875 -8.4325 7.12375 -7.625 7.1875 C-6.75875 7.125625 -5.8925 7.06375 -5 7 C-3.29467677 5.05990478 -3.29467677 5.05990478 -2 3 C-1.34 3 -0.68 3 0 3 C0 2.01 0 1.02 0 0 Z M-1 5 C-0.67 6.65 -0.34 8.3 0 10 C0.66 10 1.32 10 2 10 C1.67 8.35 1.34 6.7 1 5 C0.34 5 -0.32 5 -1 5 Z M-16 14 C-16 14.66 -16 15.32 -16 16 C-15.34 15.67 -14.68 15.34 -14 15 C-14.66 14.67 -15.32 14.34 -16 14 Z " fill="#302F2F" transform="translate(228,3)"/>
<path d="M0 0 C0.99 0 1.98 0 3 0 C3.33 4.29 3.66 8.58 4 13 C5.32 13 6.64 13 8 13 C8.33 8.71 8.66 4.42 9 0 C11.97 0 14.94 0 18 0 C18 4.29 18 8.58 18 13 C19.670625 12.9690625 19.670625 12.9690625 21.375 12.9375 C25 13 25 13 27 14 C27 14.99 27 15.98 27 17 C24.87527424 17.05386629 22.75016348 17.09273071 20.625 17.125 C18.84996094 17.15980469 18.84996094 17.15980469 17.0390625 17.1953125 C14 17 14 17 12 15 C11.34 15.66 10.68 16.32 10 17 C7.8359375 17.1953125 7.8359375 17.1953125 5.375 17.125 C4.55773438 17.10695312 3.74046875 17.08890625 2.8984375 17.0703125 C2.27195312 17.04710937 1.64546875 17.02390625 1 17 C-0.53266582 13.93466836 -0.10276471 10.73245728 -0.0625 7.375 C-0.05798828 6.66859375 -0.05347656 5.9621875 -0.04882812 5.234375 C-0.03703875 3.48954725 -0.01910324 1.744763 0 0 Z " fill="#E99E51" transform="translate(28,132)"/>
<path d="M0 0 C2 2 2 2 2.22705078 4.15478516 C2.21657715 5.02409668 2.20610352 5.8934082 2.1953125 6.7890625 C2.18886719 7.73007813 2.18242187 8.67109375 2.17578125 9.640625 C2.15902344 10.62546875 2.14226562 11.6103125 2.125 12.625 C2.11597656 13.61757812 2.10695312 14.61015625 2.09765625 15.6328125 C2.07404116 18.08878134 2.04110799 20.54427168 2 23 C0.35 23 -1.3 23 -3 23 C-3 24.98 -3 26.96 -3 29 C-3.66 29 -4.32 29 -5 29 C-5.66 26.36 -6.32 23.72 -7 21 C-7.33 21.66 -7.66 22.32 -8 23 C-10.97 23 -13.94 23 -17 23 C-17 24.98 -17 26.96 -17 29 C-17.66 29 -18.32 29 -19 29 C-19.66 26.69 -20.32 24.38 -21 22 C-21.556875 22.185625 -22.11375 22.37125 -22.6875 22.5625 C-25 23 -25 23 -30 22 C-30 17.38 -30 12.76 -30 8 C-29.67 8 -29.34 8 -29 8 C-28.67 11.96 -28.34 15.92 -28 20 C-27.67 19.34 -27.34 18.68 -27 18 C-26.01 18 -25.02 18 -24 18 C-24 17.34 -24 16.68 -24 16 C-18.68607955 14.640625 -18.68607955 14.640625 -15.375 16.375 C-14.59125 16.91125 -13.8075 17.4475 -13 18 C-10.80869466 18.69579454 -10.80869466 18.69579454 -9 19 C-8.67 17.68 -8.34 16.36 -8 15 C-5.36 15 -2.72 15 0 15 C0 10.05 0 5.1 0 0 Z " fill="#F0A541" transform="translate(240,96)"/>
<path d="M0 0 C1.9375 0.3125 1.9375 0.3125 4 1 C4.33 1.99 4.66 2.98 5 4 C5.66 4.33 6.32 4.66 7 5 C7 6.32 7 7.64 7 9 C7.66 9 8.32 9 9 9 C9 6.03 9 3.06 9 0 C10.32 0 11.64 0 13 0 C13.33 4.29 13.66 8.58 14 13 C16.97 13.495 16.97 13.495 20 14 C19.67 14.99 19.34 15.98 19 17 C14.38 17 9.76 17 5 17 C4.67 15.68 4.34 14.36 4 13 C2.02 13 0.04 13 -2 13 C-2.33 13.99 -2.66 14.98 -3 16 C-3.66 16 -4.32 16 -5 16 C-4.39363767 10.23955788 -2.24341721 5.27985631 0 0 Z " fill="#EBAA65" transform="translate(398,132)"/>
<path d="M0 0 C5.94 0 11.88 0 18 0 C18 5.61 18 11.22 18 17 C16.35 17 14.7 17 13 17 C13 12.71 13 8.42 13 4 C11.68 4 10.36 4 9 4 C9 8.29 9 12.58 9 17 C7.68 17 6.36 17 5 17 C5 12.38 5 7.76 5 3 C3.35 3 1.7 3 0 3 C0 2.01 0 1.02 0 0 Z " fill="#EAA459" transform="translate(54,131)"/>
<path d="M0 0 C2.28545181 1.76938204 2.84903918 3.07913902 3.3125 5.90625 C3.5251775 9.46859811 3.32126852 11.47311963 1.4375 14.5625 C-1 16 -1 16 -4.625 15.9375 C-8 15 -8 15 -10 12 C-10.30078125 9.84375 -10.30078125 9.84375 -10.3125 7.5 C-10.32925781 6.7265625 -10.34601563 5.953125 -10.36328125 5.15625 C-9.39211721 -0.60807852 -5.05799286 -0.63224911 0 0 Z " fill="#FEF1D1" transform="translate(340,132)"/>
<path d="M0 0 C1.32 0 2.64 0 4 0 C5.32 3.3 6.64 6.6 8 10 C9.32 6.7 10.64 3.4 12 0 C13.32 0 14.64 0 16 0 C16 5.28 16 10.56 16 16 C15.01 16 14.02 16 13 16 C12.67 13.69 12.34 11.38 12 9 C11.01 11.31 10.02 13.62 9 16 C6 15 6 15 5.05078125 13.15234375 C4.3671875 11.1015625 3.68359375 9.05078125 3 7 C2.67 9.97 2.34 12.94 2 16 C1.34 16 0.68 16 0 16 C0 10.72 0 5.44 0 0 Z " fill="#FEECC9" transform="translate(9,132)"/>
<path d="M0 0 C2.43375 -0.020625 4.8675 -0.04125 7.375 -0.0625 C8.13989746 -0.071604 8.90479492 -0.08070801 9.69287109 -0.09008789 C14.77777778 -0.11111111 14.77777778 -0.11111111 17 1 C17 1.66 17 2.32 17 3 C15.35 3 13.7 3 12 3 C12 7.62 12 12.24 12 17 C11.01 17 10.02 17 9 17 C9 12.71 9 8.42 9 4 C7.35 4 5.7 4 4 4 C3.67 8.29 3.34 12.58 3 17 C2.01 17 1.02 17 0 17 C0 11.39 0 5.78 0 0 Z " fill="#F8CE9B" transform="translate(164,131)"/>
<path d="M0 0 C1.60875 -0.04125 3.2175 -0.0825 4.875 -0.125 C5.77992188 -0.14820313 6.68484375 -0.17140625 7.6171875 -0.1953125 C10 0 10 0 12 2 C12.3125 5 12.3125 5 12 8 C8.5647952 10.29013653 7.014669 10.17842973 3 10 C3 11.98 3 13.96 3 16 C2.01 16 1.02 16 0 16 C0 10.72 0 5.44 0 0 Z " fill="#FDEECA" transform="translate(359,132)"/>
<path d="M0 0 C1.60875 -0.04125 3.2175 -0.0825 4.875 -0.125 C5.77992187 -0.14820313 6.68484375 -0.17140625 7.6171875 -0.1953125 C10 0 10 0 12 2 C12.3125 5 12.3125 5 12 8 C8.5647952 10.29013653 7.014669 10.17842973 3 10 C3 11.98 3 13.96 3 16 C2.01 16 1.02 16 0 16 C0 10.72 0 5.44 0 0 Z " fill="#FDE9C5" transform="translate(88,132)"/>
<path d="M0 0 C3.5625 0.375 3.5625 0.375 5.5625 2 C6.90430884 5.18679601 6.49197204 7.08609893 5.5625 10.375 C3.5625 12.375 3.5625 12.375 0.125 12.75 C-3.4375 12.375 -3.4375 12.375 -5.4375 10.75 C-6.77930884 7.56320399 -6.36697204 5.66390107 -5.4375 2.375 C-3.4375 0.375 -3.4375 0.375 0 0 Z " fill="#93BDDA" transform="translate(243.4375,36.625)"/>
<path d="M0 0 C2.31 0 4.62 0 7 0 C7.33 1.32 7.66 2.64 8 4 C5.03 3.505 5.03 3.505 2 3 C2 4.98 2 6.96 2 9 C3.32 9 4.64 9 6 9 C6 8.01 6 7.02 6 6 C6.99 6 7.98 6 9 6 C9.66 4.68 10.32 3.36 11 2 C12.66611905 1.957279 14.33382885 1.95936168 16 2 C17 3 17 3 17.09765625 4.84765625 C17.06510417 6.8984375 17.03255208 8.94921875 17 11 C13.66666667 11 10.33333333 11 7 11 C5.7625 11.3403125 5.7625 11.3403125 4.5 11.6875 C2 12 2 12 0.25 10.875 C-1.32273374 8.51589939 -1.79304956 6.82832267 -2 4 C-1.0625 1.6875 -1.0625 1.6875 0 0 Z " fill="#312F30" transform="translate(239,0)"/>
<path d="M0 0 C1.32 0 2.64 0 4 0 C4 1.98 4 3.96 4 6 C5.98 6 7.96 6 10 6 C10 4.02 10 2.04 10 0 C10.99 0 11.98 0 13 0 C13 5.28 13 10.56 13 16 C12.01 16 11.02 16 10 16 C10 13.69 10 11.38 10 9 C7.69 9 5.38 9 3 9 C3 11.31 3 13.62 3 16 C2.01 16 1.02 16 0 16 C0 10.72 0 5.44 0 0 Z " fill="#FBE1B9" transform="translate(314,132)"/>
<path d="M0 0 C0.99 0 1.98 0 3 0 C3.8394882 2.10171867 4.67139656 4.20646625 5.5 6.3125 C5.9640625 7.48425781 6.428125 8.65601563 6.90625 9.86328125 C8 13 8 13 8 16 C7.01 15.67 6.02 15.34 5 15 C4.67 14.34 4.34 13.68 4 13 C0.97065509 12.34227572 0.97065509 12.34227572 -2 12 C-2.33 13.32 -2.66 14.64 -3 16 C-3.99 16 -4.98 16 -6 16 C-4.43551329 10.3856009 -2.83604813 5.13189662 0 0 Z " fill="#F6DBB1" transform="translate(141,132)"/>
<path d="M0 0 C1.828125 0.02734375 1.828125 0.02734375 4 1 C5.12666239 3.56463939 5.97668335 5.89480072 6.75 8.5625 C6.97042969 9.27341797 7.19085938 9.98433594 7.41796875 10.71679688 C7.96025164 12.4733219 8.48209014 14.23613485 9 16 C7.68 15.67 6.36 15.34 5 15 C5 14.01 5 13.02 5 12 C2.69 12 0.38 12 -2 12 C-2.33 13.32 -2.66 14.64 -3 16 C-3.66 16 -4.32 16 -5 16 C-4.39363767 10.23955788 -2.24341721 5.27985631 0 0 Z " fill="#FEF1D2" transform="translate(398,132)"/>
<path d="M0 0 C0.66 0 1.32 0 2 0 C2 1.65 2 3.3 2 5 C3.6260287 4.93999894 5.25101549 4.8512115 6.875 4.75 C7.77992188 4.70359375 8.68484375 4.6571875 9.6171875 4.609375 C12.17110544 4.24388852 12.17110544 4.24388852 13.3203125 1.953125 C13.65675781 0.98632812 13.65675781 0.98632812 14 0 C14.66 0.33 15.32 0.66 16 1 C16.625 3.0625 16.625 3.0625 17 5 C18.98 5 20.96 5 23 5 C23 5.66 23 6.32 23 7 C21.35 7 19.7 7 18 7 C18 8.98 18 10.96 18 13 C17.34 13 16.68 13 16 13 C15.34 10.36 14.68 7.72 14 5 C13.67 5.66 13.34 6.32 13 7 C10.03 7 7.06 7 4 7 C4 8.98 4 10.96 4 13 C3.34 13 2.68 13 2 13 C1.34 10.69 0.68 8.38 0 6 C-0.556875 6.185625 -1.11375 6.37125 -1.6875 6.5625 C-4.399133 7.07551165 -6.34371039 6.6640724 -9 6 C-9 5.67 -9 5.34 -9 5 C-6.36 5 -3.72 5 -1 5 C-0.67 3.35 -0.34 1.7 0 0 Z " fill="#FDCB7C" transform="translate(219,112)"/>
<path d="M0 0 C1.32 0.66 2.64 1.32 4 2 C3.67 2.66 3.34 3.32 3 4 C2.93003986 5.70702735 2.91559846 7.41668003 2.9375 9.125 C2.95103516 10.49011719 2.95103516 10.49011719 2.96484375 11.8828125 C2.97644531 12.58148438 2.98804687 13.28015625 3 14 C2.34 14 1.68 14 1 14 C0.67 14.66 0.34 15.32 0 16 C0 15.34 0 14.68 0 14 C-2.31 14 -4.62 14 -7 14 C-7 12.35 -7 10.7 -7 9 C-5.02 9 -3.04 9 -1 9 C-1 8.01 -1 7.02 -1 6 C-2.98 6 -4.96 6 -7 6 C-7 4.68 -7 3.36 -7 2 C-4.69 2 -2.38 2 0 2 C0 1.34 0 0.68 0 0 Z " fill="#EEA052" transform="translate(113,132)"/>
<path d="M0 0 C2 2 2 2 3 5 C4.670625 4.7215625 4.670625 4.7215625 6.375 4.4375 C10 4 10 4 12 5 C12.33 3.35 12.66 1.7 13 0 C13.66 0 14.32 0 15 0 C15.66 1.65 16.32 3.3 17 5 C19.64 5 22.28 5 25 5 C25 5.66 25 6.32 25 7 C22.69 7 20.38 7 18 7 C17.67 8.98 17.34 10.96 17 13 C16.34 12.34 15.68 11.68 15 11 C15 9.68 15 8.36 15 7 C11.37 7 7.74 7 4 7 C3.67 8.98 3.34 10.96 3 13 C0.70986347 9.5647952 0.82157027 8.014669 1 4 C0.34 4 -0.32 4 -1 4 C-1 4.66 -1 5.32 -1 6 C-2.98 6.33 -4.96 6.66 -7 7 C-7 6.34 -7 5.68 -7 5 C-5.35 5 -3.7 5 -2 5 C-1.34 3.35 -0.68 1.7 0 0 Z " fill="#FCCC7D" transform="translate(263,112)"/>
<path d="M0 0 C0.99 0 1.98 0 3 0 C3.33 4.29 3.66 8.58 4 13 C5.32 13 6.64 13 8 13 C8.33 8.71 8.66 4.42 9 0 C9.99 0 10.98 0 12 0 C12.0810206 2.10353495 12.13919907 4.20795952 12.1875 6.3125 C12.22230469 7.48425781 12.25710937 8.65601563 12.29296875 9.86328125 C12 13 12 13 10.7109375 14.89453125 C7.83984665 16.7495968 5.29857052 16.35984406 2 16 C-0.42130331 12.36804504 -0.21022785 10.61650652 -0.125 6.3125 C-0.09792969 4.54326172 -0.09792969 4.54326172 -0.0703125 2.73828125 C-0.04710938 1.83464844 -0.02390625 0.93101562 0 0 Z " fill="#FEF5D8" transform="translate(28,132)"/>
<path d="M0 0 C2 2 2 2 2 5 C1.01 5 0.02 5 -1 5 C-1.33 4.34 -1.66 3.68 -2 3 C-3.32 3 -4.64 3 -6 3 C-6 3.66 -6 4.32 -6 5 C-3.36 6.32 -0.72 7.64 2 9 C2.1875 11.375 2.1875 11.375 2 14 C-1.46923881 16.31282587 -2.92205575 16.42478586 -7 16 C-8.875 14.625 -8.875 14.625 -10 13 C-10 12.34 -10 11.68 -10 11 C-9.01 11 -8.02 11 -7 11 C-6.67 11.66 -6.34 12.32 -6 13 C-4.68 13 -3.36 13 -2 13 C-1.67 12.01 -1.34 11.02 -1 10 C-1.94875 9.690625 -2.8975 9.38125 -3.875 9.0625 C-7 8 -7 8 -9 7 C-9 5.02 -9 3.04 -9 1 C-5.98675805 -0.50662097 -3.31713623 -0.17770373 0 0 Z " fill="#FEEEC9" transform="translate(84,132)"/>
<path d="M0 0 C3.5 0.25 3.5 0.25 5.5 2.25 C5.5 3.24 5.5 4.23 5.5 5.25 C4.51 5.25 3.52 5.25 2.5 5.25 C2.17 4.59 1.84 3.93 1.5 3.25 C0.18 3.25 -1.14 3.25 -2.5 3.25 C-2.5 3.91 -2.5 4.57 -2.5 5.25 C0.14 6.57 2.78 7.89 5.5 9.25 C5.6875 11.625 5.6875 11.625 5.5 14.25 C2.03076119 16.56282587 0.57794425 16.67478586 -3.5 16.25 C-5.375 14.875 -5.375 14.875 -6.5 13.25 C-6.5 12.59 -6.5 11.93 -6.5 11.25 C-5.51 11.25 -4.52 11.25 -3.5 11.25 C-3.17 11.91 -2.84 12.57 -2.5 13.25 C-1.18 13.25 0.14 13.25 1.5 13.25 C1.83 12.26 2.16 11.27 2.5 10.25 C1.365625 9.940625 0.23125 9.63125 -0.9375 9.3125 C-4.5 8.25 -4.5 8.25 -5.5 7.25 C-5.6875 4.8125 -5.6875 4.8125 -5.5 2.25 C-3.5 0.25 -3.5 0.25 0 0 Z " fill="#FFEECC" transform="translate(351.5,131.75)"/>
<path d="M0 0 C3.3 0 6.6 0 10 0 C10 0.66 10 1.32 10 2 C7.69 2 5.38 2 3 2 C3 3.32 3 4.64 3 6 C4.98 6 6.96 6 9 6 C9 6.99 9 7.98 9 9 C7.02 9 5.04 9 3 9 C3 10.65 3 12.3 3 14 C5.31 14 7.62 14 10 14 C10 14.66 10 15.32 10 16 C6.7 16 3.4 16 0 16 C0 10.72 0 5.44 0 0 Z " fill="#FDF0D2" transform="translate(103,132)"/>
<path d="M0 0 C1.9375 1.375 1.9375 1.375 3 3 C3 3.66 3 4.32 3 5 C1.68 5 0.36 5 -1 5 C-1 4.01 -1 3.02 -1 2 C-2.65 2 -4.3 2 -6 2 C-6 5.3 -6 8.6 -6 12 C-2.24020355 13.36283174 -2.24020355 13.36283174 0.25 12.0625 C0.8275 11.711875 1.405 11.36125 2 11 C1.67 12.32 1.34 13.64 1 15 C-5.25 16.44230769 -5.25 16.44230769 -8.4375 14.5625 C-10.61882844 10.98512136 -10.6699154 8.08648396 -10 4 C-7.93207281 -0.86571104 -4.90619881 -0.61327485 0 0 Z " fill="#FEEFCA" transform="translate(125,132)"/>
<path d="M0 0 C1.60815713 3.21631425 0.09465808 6.25060424 -0.8125 9.5625 C-0.99103516 10.26052734 -1.16957031 10.95855469 -1.35351562 11.67773438 C-1.8353613 13.47117442 -2.41150443 15.23867226 -3 17 C-5 18 -5 18 -7 18.4375 C-9.20895094 18.88278362 -9.20895094 18.88278362 -11 21 C-10.82836574 13.27645809 -6.49761675 6.70335892 -1.2734375 1.171875 C-0.85320312 0.78515625 -0.43296875 0.3984375 0 0 Z " fill="#07AAE3" transform="translate(238,23)"/>
<path d="M0 0 C0.66 0.33 1.32 0.66 2 1 C1.57847656 1.5878125 1.15695312 2.175625 0.72265625 2.78125 C-5.76042646 13.39825133 -5.02055032 24.89879597 -5 37 C-5.66 37 -6.32 37 -7 37 C-7 36.34 -7 35.68 -7 35 C-7.66 35 -8.32 35 -9 35 C-9.66 32.36 -10.32 29.72 -11 27 C-10.34 27.33 -9.68 27.66 -9 28 C-9 28.99 -9 29.98 -9 31 C-8.34 31 -7.68 31 -7 31 C-7.01160156 30.14277344 -7.02320313 29.28554687 -7.03515625 28.40234375 C-7.0818041 22.49139448 -7.08249916 16.81843296 -6 11 C-5.34 11 -4.68 11 -4 11 C-4.061875 10.05125 -4.12375 9.1025 -4.1875 8.125 C-4.125625 7.09375 -4.06375 6.0625 -4 5 C-3.01 4.34 -2.02 3.68 -1 3 C-0.67 2.01 -0.34 1.02 0 0 Z " fill="#44A2B3" transform="translate(261,99)"/>
<path d="M0 0 C0.33 0.66 0.66 1.32 1 2 C1.66 2 2.32 2 3 2 C3 3.65 3 5.3 3 7 C4.423125 7.4640625 4.423125 7.4640625 5.875 7.9375 C9 9 9 9 11 10 C10.67 11.32 10.34 12.64 10 14 C8.35 13.67 6.7 13.34 5 13 C5 12.34 5 11.68 5 11 C4.01 11 3.02 11 2 11 C2.99 12.65 3.98 14.3 5 16 C3.35 16 1.7 16 0 16 C0 10.72 0 5.44 0 0 Z " fill="#EC9C4B" transform="translate(72,132)"/>
<path d="M0 0 C1.32 0 2.64 0 4 0 C4.020625 0.763125 4.04125 1.52625 4.0625 2.3125 C4.79660949 5.41389118 4.79660949 5.41389118 8.5625 6.8125 C9.696875 7.204375 10.83125 7.59625 12 8 C11.67 9.32 11.34 10.64 11 12 C9.35 11.67 7.7 11.34 6 11 C6 10.34 6 9.68 6 9 C5.01 9 4.02 9 3 9 C3.99 10.65 4.98 12.3 6 14 C5.401875 13.67 4.80375 13.34 4.1875 13 C1.94613529 11.79212012 1.94613529 11.79212012 -1 12 C-0.67 11.34 -0.34 10.68 0 10 C0.06996014 8.29297265 0.08440154 6.58331997 0.0625 4.875 C0.05347656 3.96492187 0.04445313 3.05484375 0.03515625 2.1171875 C0.02355469 1.41851562 0.01195312 0.71984375 0 0 Z " fill="#EC9B4D" transform="translate(342,134)"/>
<path d="M0 0 C1.8125 0.1875 1.8125 0.1875 4 1 C5.75 3.5625 5.75 3.5625 7 6 C7.99 4.02 8.98 2.04 10 0 C10.99 0 11.98 0 13 0 C11.17708333 4.6875 11.17708333 4.6875 9.9375 6.875 C8.62876356 9.84146927 8.36953746 12.79734198 8 16 C7.01 16 6.02 16 5 16 C4.89042969 15.43152344 4.78085938 14.86304688 4.66796875 14.27734375 C3.62061834 9.17683242 2.20728247 4.715558 0 0 Z " fill="#FFF1D7" transform="translate(182,132)"/>
<path d="M0 0 C1.32 0.33 2.64 0.66 4 1 C4 4.29668555 3.65225958 6.82023454 3 10 C3 10.99 3 11.98 3 13 C2.01 13 1.02 13 0 13 C0 12.34 0 11.68 0 11 C-1.65 10.67 -3.3 10.34 -5 10 C-5 8.35 -5 6.7 -5 5 C-3.68 4.67 -2.36 4.34 -1 4 C-0.67 2.68 -0.34 1.36 0 0 Z M1 2 C2 4 2 4 2 4 Z M-2 6 C-2 6.99 -2 7.98 -2 9 C-1.34 8.67 -0.68 8.34 0 8 C-0.66 7.34 -1.32 6.68 -2 6 Z " fill="#333232" transform="translate(279,7)"/>
<path d="M0 0 C0.99 0.495 0.99 0.495 2 1 C2 4.3 2 7.6 2 11 C3.32 11 4.64 11 6 11 C8.42857143 17.28571429 8.42857143 17.28571429 7 21 C6.34 19.68 5.68 18.36 5 17 C4.01 17 3.02 17 2 17 C1.34 18.32 0.68 19.64 0 21 C0 14.07 0 7.14 0 0 Z " fill="#3D7481" transform="translate(242,103)"/>
<path d="M0 0 C3.53571429 0.53571429 3.53571429 0.53571429 5 2 C5.27314815 7.73611111 5.27314815 7.73611111 5 10 C4.34 10.66 3.68 11.32 3 12 C-0.53571429 11.46428571 -0.53571429 11.46428571 -2 10 C-2.27314815 4.26388889 -2.27314815 4.26388889 -2 2 C-1.34 1.34 -0.68 0.68 0 0 Z " fill="#E69C52" transform="translate(335,134)"/>
<path d="M0 0 C0.66 0.66 1.32 1.32 2 2 C1.625 4.625 1.625 4.625 1 7 C-1 6 -1 6 -2 3 C-3.32 3.33 -4.64 3.66 -6 4 C-6.33 5.32 -6.66 6.64 -7 8 C-5.02 8 -3.04 8 -1 8 C-1.33 8.99 -1.66 9.98 -2 11 C-4.7648665 11.22417836 -6.46277487 11.32233508 -8.875 9.875 C-10 8 -10 8 -9.9375 5 C-9 2 -9 2 -7.25 0.0625 C-4.36241486 -1.30108187 -2.98583817 -1.02147095 0 0 Z " fill="#323132" transform="translate(296,17)"/>
<path d="M0 0 C0.99 0 1.98 0 3 0 C3 4.29 3 8.58 3 13 C5.31 13 7.62 13 10 13 C10 13.99 10 14.98 10 16 C6.7 16 3.4 16 0 16 C0 10.72 0 5.44 0 0 Z " fill="#FEE8C0" transform="translate(43,132)"/>
<path d="M0 0 C4.29 0 8.58 0 13 0 C13 0.66 13 1.32 13 2 C11.35 2 9.7 2 8 2 C8 6.62 8 11.24 8 16 C7.01 16 6.02 16 5 16 C5 11.38 5 6.76 5 2 C3.35 2 1.7 2 0 2 C0 1.34 0 0.68 0 0 Z " fill="#FEF0D0" transform="translate(379,132)"/>
<path d="M0 0 C3.96 0 7.92 0 12 0 C12 0.66 12 1.32 12 2 C10.68 2 9.36 2 8 2 C8 6.62 8 11.24 8 16 C7.01 16 6.02 16 5 16 C5 11.38 5 6.76 5 2 C3.35 2 1.7 2 0 2 C0 1.34 0 0.68 0 0 Z " fill="#FCE8C0" transform="translate(54,132)"/>
<path d="M0 0 C0.66 0 1.32 0 2 0 C2 0.66 2 1.32 2 2 C2.99 2 3.98 2 5 2 C5.33 1.34 5.66 0.68 6 0 C6 5.94 6 11.88 6 18 C5.01 18 4.02 18 3 18 C2.95101562 17.34773438 2.90203125 16.69546875 2.8515625 16.0234375 C2.42586327 11.04716028 1.76610252 6.70960672 0 2 C0 1.34 0 0.68 0 0 Z " fill="#0774B1" transform="translate(241,96)"/>
<path d="M0 0 C0.99 0 1.98 0 3 0 C3 4.62 3 9.24 3 14 C5.31 14 7.62 14 10 14 C10 14.66 10 15.32 10 16 C6.7 16 3.4 16 0 16 C0 10.72 0 5.44 0 0 Z " fill="#FFEDD1" transform="translate(151,132)"/>
<path d="M0 0 C1.65 0 3.3 0 5 0 C5 4.29 5 8.58 5 13 C5.99 13 6.98 13 8 13 C8.33 8.71 8.66 4.42 9 0 C10.32 0.33 11.64 0.66 13 1 C12.01 1 11.02 1 10 1 C10 5.29 10 9.58 10 14 C8.35 14.33 6.7 14.66 5 15 C4 14 4 14 3.90234375 11.05859375 C3.91394531 9.86363281 3.92554688 8.66867188 3.9375 7.4375 C3.94652344 6.23996094 3.95554687 5.04242188 3.96484375 3.80859375 C3.97644531 2.88175781 3.98804688 1.95492187 4 1 C3.01 1 2.02 1 1 1 C1 5.29 1 9.58 1 14 C0.67 14 0.34 14 0 14 C0 9.38 0 4.76 0 0 Z " fill="#E69F54" transform="translate(27,131)"/>
<path d="M0 0 C2.64 0 5.28 0 8 0 C8 0.66 8 1.32 8 2 C6.35 2 4.7 2 3 2 C3 6.62 3 11.24 3 16 C2.01 16 1.02 16 0 16 C0 10.72 0 5.44 0 0 Z " fill="#FEEBD1" transform="translate(359,132)"/>
<path d="M0 0 C7.1826087 -0.48695652 7.1826087 -0.48695652 10.9375 1.75 C13.10661378 4.11630594 13.51756306 4.92994677 14 8 C13.91760895 9.754132 13.76901219 11.50611925 13.5625 13.25 C13.46066406 14.14203125 13.35882813 15.0340625 13.25390625 15.953125 C13.17011719 16.62859375 13.08632813 17.3040625 13 18 C12.67 18 12.34 18 12 18 C11.96261719 17.32453125 11.92523438 16.6490625 11.88671875 15.953125 C11.78810547 14.61507812 11.78810547 14.61507812 11.6875 13.25 C11.60048828 11.92742187 11.60048828 11.92742187 11.51171875 10.578125 C10.91901872 7.59200271 10.16960019 6.13015291 8 4 C5.9511352 3.51942285 5.9511352 3.51942285 3.8125 3.75 C1.9253125 3.87375 1.9253125 3.87375 0 4 C0 2.68 0 1.36 0 0 Z " fill="#0965A8" transform="translate(314,71)"/>
<path d="M0 0 C2.625 0.9375 2.625 0.9375 5 2 C4.67 4.31 4.34 6.62 4 9 C2.1875 9.625 2.1875 9.625 0 10 C-0.99 9.34 -1.98 8.68 -3 8 C-2.74438677 5.6568787 -2.40729228 3.32156597 -2 1 C-1.34 0.67 -0.68 0.34 0 0 Z " fill="#333131" transform="translate(265,4)"/>
<path d="M0 0 C0.78375 0.04125 1.5675 0.0825 2.375 0.125 C2.75563221 2.4510857 3.08769945 4.78555264 3.375 7.125 C2.375 8.125 2.375 8.125 -0.625 8.25 C-3.625 8.125 -3.625 8.125 -4.625 7.125 C-4.8125 4.6875 -4.8125 4.6875 -4.625 2.125 C-2.625 0.125 -2.625 0.125 0 0 Z " fill="#B6D5EB" transform="translate(243.625,37.875)"/>
<path d="M0 0 C2 2 2 2 2.22705078 3.97119141 C2.21657715 4.75671387 2.20610352 5.54223633 2.1953125 6.3515625 C2.18886719 7.20234375 2.18242187 8.053125 2.17578125 8.9296875 C2.15902344 9.81914063 2.14226562 10.70859375 2.125 11.625 C2.11597656 12.5221875 2.10695312 13.419375 2.09765625 14.34375 C2.0740497 16.56276586 2.0411231 18.78125077 2 21 C0.02 21 -1.96 21 -4 21 C-4.33 21.66 -4.66 22.32 -5 23 C-5 20.69 -5 18.38 -5 16 C-3.35 15.67 -1.7 15.34 0 15 C0 10.05 0 5.1 0 0 Z " fill="#E1A94B" transform="translate(240,96)"/>
<path d="M0 0 C1 2 1 2 0.22265625 4.6015625 C-0.16019531 5.59929687 -0.54304688 6.59703125 -0.9375 7.625 C-1.31777344 8.62789062 -1.69804687 9.63078125 -2.08984375 10.6640625 C-2.39019531 11.43492188 -2.69054687 12.20578125 -3 13 C-1.68 12.67 -0.36 12.34 1 12 C0.01 13.98 -0.98 15.96 -2 18 C-3.65 18 -5.3 18 -7 18 C-7.50710303 13.19157661 -5.83930651 10.32305971 -3.5 6.1875 C-3.16613281 5.59001953 -2.83226562 4.99253906 -2.48828125 4.37695312 C-1.66827367 2.91265388 -0.83540688 1.45556863 0 0 Z " fill="#CCAF5C" transform="translate(263,99)"/>
<path d="M0 0 C0 1.98 0 3.96 0 6 C-2.70879335 7.35439668 -5.00933268 7.06501451 -8 7 C-8.6875 4.6875 -8.6875 4.6875 -9 2 C-6.73607469 -1.99516231 -4.01344788 -0.98106504 0 0 Z M-3 2 C-2 4 -2 4 -2 4 Z M-7 3 C-6.34 3.66 -5.68 4.32 -5 5 C-5 4.34 -5 3.68 -5 3 C-5.66 3 -6.32 3 -7 3 Z " fill="#313030" transform="translate(309,39)"/>
<path d="M0 0 C0.66 0 1.32 0 2 0 C2 0.66 2 1.32 2 2 C3.65 2 5.3 2 7 2 C7 1.34 7 0.68 7 0 C7.66 0 8.32 0 9 0 C10.25664978 2.90600261 11 4.79604584 11 8 C10.01 7.67 9.02 7.34 8 7 C7.67 6.34 7.34 5.68 7 5 C3.97065509 4.34227572 3.97065509 4.34227572 1 4 C0.67 5.32 0.34 6.64 0 8 C-0.99 8 -1.98 8 -3 8 C-1.125 1.125 -1.125 1.125 0 0 Z " fill="#FEF4D6" transform="translate(138,140)"/>
<path d="M0 0 C1.32 0 2.64 0 4 0 C4.33 0.99 4.66 1.98 5 3 C5.99 3.66 6.98 4.32 8 5 C7.01 5.33 6.02 5.66 5 6 C4.67 6.99 4.34 7.98 4 9 C2.35 9 0.7 9 -1 9 C-1.09765625 2.84765625 -1.09765625 2.84765625 -1 1 C-0.67 0.67 -0.34 0.34 0 0 Z " fill="#F49738" transform="translate(119,135)"/>
<path d="M0 0 C0.99 0.33 1.98 0.66 3 1 C1.02 3.97 1.02 3.97 -1 7 C-0.21625 6.505 0.5675 6.01 1.375 5.5 C4 4 4 4 6 4 C4.54744301 7.82946843 2.57104439 9.12050295 -1 11 C-2.5625 9.8125 -2.5625 9.8125 -4 8 C-3.84946418 4.98928361 -3.41319987 3.47931185 -1.4375 1.1875 C-0.963125 0.795625 -0.48875 0.40375 0 0 Z " fill="#2B2A2B" transform="translate(297,25)"/>
<path d="M0 0 C3.96 0 7.92 0 12 0 C12 0.66 12 1.32 12 2 C10.35 2 8.7 2 7 2 C7 6.62 7 11.24 7 16 C6.34 16 5.68 16 5 16 C5 11.38 5 6.76 5 2 C3.35 2 1.7 2 0 2 C0 1.34 0 0.68 0 0 Z " fill="#FFF9E2" transform="translate(169,132)"/>
<path d="M0 0 C1.32 0 2.64 0 4 0 C4.33 2.64 4.66 5.28 5 8 C4.34 7.67 3.68 7.34 3 7 C2.67 9.97 2.34 12.94 2 16 C1.34 16 0.68 16 0 16 C0 10.72 0 5.44 0 0 Z " fill="#FEF4D6" transform="translate(9,132)"/>
<path d="M0 0 C0.66 0 1.32 0 2 0 C2 5.28 2 10.56 2 16 C1.67 16 1.34 16 1 16 C0.67 14.02 0.34 12.04 0 10 C-4.455 10.495 -4.455 10.495 -9 11 C-9 12.65 -9 14.3 -9 16 C-9.33 16 -9.66 16 -10 16 C-10 14.02 -10 12.04 -10 10 C-7.36 9.34 -4.72 8.68 -2 8 C-1.34 5.36 -0.68 2.72 0 0 Z " fill="#E7A761" transform="translate(101,132)"/>
<path d="M0 0 C0.99 0 1.98 0 3 0 C3 4.95 3 9.9 3 15 C1.68 14.67 0.36 14.34 -1 14 C-0.690625 12.824375 -0.690625 12.824375 -0.375 11.625 C-0.25125 10.75875 -0.1275 9.8925 0 9 C-0.66 8.34 -1.32 7.68 -2 7 C-1.34 4.69 -0.68 2.38 0 0 Z " fill="#0765A4" transform="translate(5,85)"/>
<path d="M0 0 C0.66 0 1.32 0 2 0 C1.6205183 7.21015227 -2.74912054 14.17359283 -8 19 C-8 17.68 -8 16.36 -8 15 C-7.34 15 -6.68 15 -6 15 C-5.7834375 14.071875 -5.7834375 14.071875 -5.5625 13.125 C-5 11 -5 11 -4 9 C-3.34 9 -2.68 9 -2 9 C-2.33 8.01 -2.66 7.02 -3 6 C-3.66 6 -4.32 6 -5 6 C-5 5.34 -5 4.68 -5 4 C-3.35 3.34 -1.7 2.68 0 2 C0 1.34 0 0.68 0 0 Z " fill="#1782A4" transform="translate(271,80)"/>
<path d="M0 0 C0.99 0 1.98 0 3 0 C3 5.28 3 10.56 3 16 C2.01 16 1.02 16 0 16 C0 10.72 0 5.44 0 0 Z " fill="#FFEECC" transform="translate(130,132)"/>
<path d="M0 0 C0.99 0 1.98 0 3 0 C3 5.28 3 10.56 3 16 C2.01 16 1.02 16 0 16 C0 10.72 0 5.44 0 0 Z " fill="#FFEFCA" transform="translate(374,132)"/>
<path d="M0 0 C0.99 0 1.98 0 3 0 C3 5.28 3 10.56 3 16 C2.01 16 1.02 16 0 16 C0 10.72 0 5.44 0 0 Z " fill="#FCE7C4" transform="translate(69,132)"/>
<path d="M0 0 C0.66 0 1.32 0 2 0 C2.33 4.29 2.66 8.58 3 13 C5.97 13.495 5.97 13.495 9 14 C9 14.66 9 15.32 9 16 C6.03 16 3.06 16 0 16 C0 10.72 0 5.44 0 0 Z " fill="#FEF5D3" transform="translate(409,132)"/>
<path d="M0 0 C2 2 2 2 3 5 C4.65948148 6.01187895 6.32580562 7.0126546 8 8 C8 8.66 8 9.32 8 10 C4.65626525 9.44271087 1.96687001 8.64826111 -1 7 C-1.33 7.66 -1.66 8.32 -2 9 C-2.66 9 -3.32 9 -4 9 C-3.46930939 5.17902761 -2.50298434 2.93828597 0 0 Z " fill="#302F2F" transform="translate(193,30)"/>
<path d="M0 0 C0.66 0 1.32 0 2 0 C2 0.66 2 1.32 2 2 C2.66 2.33 3.32 2.66 4 3 C4 6.63 4 10.26 4 14 C2.02 14.99 2.02 14.99 0 16 C0 10.72 0 5.44 0 0 Z " fill="#E3A050" transform="translate(327,132)"/>
<path d="M0 0 C1.45792884 -0.05399736 2.91642712 -0.09279177 4.375 -0.125 C5.18710938 -0.14820313 5.99921875 -0.17140625 6.8359375 -0.1953125 C9 0 9 0 11 2 C11.125 5.125 11.125 5.125 11 8 C9.02 8.99 9.02 8.99 7 10 C6.34 9.34 5.68 8.68 5 8 C5.66 7.67 6.32 7.34 7 7 C7 5.68 7 4.36 7 3 C4.69 3 2.38 3 0 3 C0 2.01 0 1.02 0 0 Z " fill="#FEF0D2" transform="translate(89,132)"/>
<path d="M0 0 C1.98 0 3.96 0 6 0 C6.33 1.98 6.66 3.96 7 6 C8.32 6 9.64 6 11 6 C10.34 7.98 9.68 9.96 9 12 C6.55160412 8.32740617 5 5.45351799 5 1 C3.68 1 2.36 1 1 1 C1 6.28 1 11.56 1 17 C0.67 17 0.34 17 0 17 C0 11.39 0 5.78 0 0 Z " fill="#ECA969" transform="translate(8,131)"/>
<path d="M0 0 C2.31 0 4.62 0 7 0 C7.66 1.32 8.32 2.64 9 4 C9.66 4 10.32 4 11 4 C10.67 5.32 10.34 6.64 10 8 C8.49440461 6.03617993 7.10868317 4.21736634 6 2 C5.34 2 4.68 2 4 2 C4 2.66 4 3.32 4 4 C2.02 4 0.04 4 -2 4 C-2 8.29 -2 12.58 -2 17 C-2.33 17 -2.66 17 -3 17 C-3 12.38 -3 7.76 -3 3 C-1.35 3 0.3 3 2 3 C2 2.34 2 1.68 2 1 C1.34 0.67 0.68 0.34 0 0 Z " fill="#EBAB69" transform="translate(179,131)"/>
<path d="M0 0 C1.32 0 2.64 0 4 0 C4.33 1.32 4.66 2.64 5 4 C5.66 4 6.32 4 7 4 C7 4.66 7 5.32 7 6 C7.99 6.33 8.98 6.66 10 7 C12.59367168 11.1306623 13.34641555 14.15018224 13 19 C11.05451536 17.05451536 10.31865048 15.76252381 9.1875 13.3125 C6.78318279 8.36879159 3.90821277 3.90821277 0 0 Z " fill="#278B9B" transform="translate(228,77)"/>
<path d="M0 0 C0.99 0.33 1.98 0.66 3 1 C0.29384966 10.59453303 0.29384966 10.59453303 -4 14 C-5 11 -5 11 -4.2578125 9.0625 C-3.88398437 8.381875 -3.51015625 7.70125 -3.125 7 C-1.84169028 4.63081282 -0.85840339 2.57521017 0 0 Z " fill="#0561A6" transform="translate(91,97)"/>
<path d="M0 0 C0.66 0 1.32 0 2 0 C2 3.96 2 7.92 2 12 C3.65 12 5.3 12 7 12 C7.33 13.32 7.66 14.64 8 16 C7.67 15.34 7.34 14.68 7 14 C5.5459375 14.0309375 5.5459375 14.0309375 4.0625 14.0625 C1 14 1 14 0 13 C-0.07258946 10.81360547 -0.08373783 8.62499611 -0.0625 6.4375 C-0.05347656 5.23996094 -0.04445313 4.04242188 -0.03515625 2.80859375 C-0.02355469 1.88175781 -0.01195312 0.95492187 0 0 Z " fill="#EFAE6A" transform="translate(411,132)"/>
<path d="M0 0 C1.32 0 2.64 0 4 0 C4 4.95 4 9.9 4 15 C3.34 15 2.68 15 2 15 C1.67 11.7 1.34 8.4 1 5 C0.67 5 0.34 5 0 5 C0 3.35 0 1.7 0 0 Z " fill="#FFF6C7" transform="translate(21,132)"/>
<path d="M0 0 C0.99 0 1.98 0 3 0 C1.64978174 4.41889613 -0.26115668 6.34345343 -4 9 C-5.32 7.68 -6.64 6.36 -8 5 C-7.05125 4.54625 -6.1025 4.0925 -5.125 3.625 C-1.99686321 2.19761746 -1.99686321 2.19761746 0 0 Z " fill="#0563A7" transform="translate(162,101)"/>
<path d="M0 0 C1.61231086 4.83693259 -0.02785173 8.48418294 -2 13 C-5.14285714 17.71428571 -5.14285714 17.71428571 -9 19 C-7.87073305 15.71485977 -6.38365351 12.95743652 -4.5 10.0625 C-2.41120578 6.81531842 -1.03057221 3.74753532 0 0 Z " fill="#C7C666" transform="translate(273,80)"/>
<path d="M0 0 C0.33 0 0.66 0 1 0 C1 4.62 1 9.24 1 14 C-3.455 14.495 -3.455 14.495 -8 15 C-8.33 13.02 -8.66 11.04 -9 9 C-8.34 9 -7.68 9 -7 9 C-7 9.99 -7 10.98 -7 12 C-4.69 12 -2.38 12 0 12 C0 8.04 0 4.08 0 0 Z " fill="#EFA945" transform="translate(287,103)"/>
<path d="M0 0 C0.66 0 1.32 0 2 0 C2.33 0.66 2.66 1.32 3 2 C5.31 2 7.62 2 10 2 C10 1.34 10 0.68 10 0 C10.66 0 11.32 0 12 0 C11.67 1.65 11.34 3.3 11 5 C8.03 5 5.06 5 2 5 C1.67 5.66 1.34 6.32 1 7 C0.67 4.69 0.34 2.38 0 0 Z " fill="#F0A841" transform="translate(264,112)"/>
<path d="M0 0 C0.66 0.33 1.32 0.66 2 1 C1.35522931 2.62542193 0.70914857 4.25032424 0.0625 5.875 C-0.29714844 6.77992187 -0.65679687 7.68484375 -1.02734375 8.6171875 C-2 11 -2 11 -3 13 C-3.66 13 -4.32 13 -5 13 C-4.54996653 7.37458159 -3.31558515 4.38512875 0 0 Z " fill="#095E9E" transform="translate(99,73)"/>
<path d="M0 0 C4.98777148 2.49388574 5.51258849 4.20284924 8 9 C6.35 9.66 4.7 10.32 3 11 C2.01 7.37 1.02 3.74 0 0 Z " fill="#0762A6" transform="translate(259,38)"/>
<path d="M0 0 C0.66 0 1.32 0 2 0 C2 1.98 2 3.96 2 6 C-0.64 6 -3.28 6 -6 6 C-6 4.68 -6 3.36 -6 2 C-4.02 2 -2.04 2 0 2 C0 1.34 0 0.68 0 0 Z " fill="#EE9841" transform="translate(112,139)"/>
<path d="M0 0 C0.99 0 1.98 0 3 0 C3 4.95 3 9.9 3 15 C2.34 15 1.68 15 1 15 C0.67 10.05 0.34 5.1 0 0 Z " fill="#FFF2D1" transform="translate(324,132)"/>
<path d="M0 0 C1.65 0 3.3 0 5 0 C5.33 0.99 5.66 1.98 6 3 C6.66 2.34 7.32 1.68 8 1 C7.67 3.31 7.34 5.62 7 8 C5.68 8.33 4.36 8.66 3 9 C3 6.69 3 4.38 3 2 C2.34 1.67 1.68 1.34 1 1 C0.67 1.99 0.34 2.98 0 4 C0 2.68 0 1.36 0 0 Z " fill="#D2944D" transform="translate(237,119)"/>
<path d="M0 0 C1.32 0 2.64 0 4 0 C4 1.32 4 2.64 4 4 C3.34 4 2.68 4 2 4 C2.47780303 5.29217171 2.95729106 6.58372046 3.4375 7.875 C3.70433594 8.59429687 3.97117187 9.31359375 4.24609375 10.0546875 C4.97916854 12.03648845 4.97916854 12.03648845 6 14 C5.401875 13.67 4.80375 13.34 4.1875 13 C1.94613529 11.79212012 1.94613529 11.79212012 -1 12 C-0.67 11.34 -0.34 10.68 0 10 C0.06996014 8.29297265 0.08440154 6.58331997 0.0625 4.875 C0.05347656 3.96492187 0.04445313 3.05484375 0.03515625 2.1171875 C0.02355469 1.41851562 0.01195312 0.71984375 0 0 Z " fill="#E8A45A" transform="translate(342,134)"/>
<path d="M0 0 C4.3163314 4.3163314 4.34374164 11.18742597 5 17 C5.31323028 18.67056149 5.63678515 20.33958925 6 22 C3.31796173 18.85968628 2.27399039 16.12357907 1.3125 12.125 C1.06113281 11.11695312 0.80976563 10.10890625 0.55078125 9.0703125 C-0.00403668 5.97749767 -0.09825559 3.13482106 0 0 Z " fill="#22A6CF" transform="translate(247,108)"/>
<path d="M0 0 C0.66 0 1.32 0 2 0 C1.5317879 4.77576339 0.75668002 8.04476345 -2 12 C-2.33 11.34 -2.66 10.68 -3 10 C-3.66 9.67 -4.32 9.34 -5 9 C-3.35 6.03 -1.7 3.06 0 0 Z " fill="#0765A3" transform="translate(340,97)"/>
<path d="M0 0 C1.65 0 3.3 0 5 0 C5.38218767 1.65614657 5.71395102 3.32457024 6 5 C5 6 5 6 2.4375 6.0625 C1.2309375 6.0315625 1.2309375 6.0315625 0 6 C0 4.02 0 2.04 0 0 Z " fill="#ECA45A" transform="translate(362,134)"/>
<path d="M0 0 C1.65 0 3.3 0 5 0 C5.38218767 1.65614657 5.71395102 3.32457024 6 5 C5 6 5 6 2.4375 6.0625 C1.2309375 6.0315625 1.2309375 6.0315625 0 6 C0 4.02 0 2.04 0 0 Z " fill="#EBA35D" transform="translate(91,134)"/>
<path d="M0 0 C2.07804877 2.07804877 3.03141959 3.24327114 4 6 C3.625 9.75 3.625 9.75 3 13 C0.70986347 9.5647952 0.82157027 8.014669 1 4 C0.34 4 -0.32 4 -1 4 C-1 4.66 -1 5.32 -1 6 C-2.98 6.33 -4.96 6.66 -7 7 C-7 6.34 -7 5.68 -7 5 C-5.35 5 -3.7 5 -2 5 C-1.34 3.35 -0.68 1.7 0 0 Z " fill="#FBD68C" transform="translate(263,112)"/>
<path d="M0 0 C0.99 0.33 1.98 0.66 3 1 C3.33 3.31 3.66 5.62 4 8 C1.03 7.505 1.03 7.505 -2 7 C-1.34 4.69 -0.68 2.38 0 0 Z " fill="#F0CE9B" transform="translate(397,134)"/>
<path d="M0 0 C3.465 1.485 3.465 1.485 7 3 C6.67 4.32 6.34 5.64 6 7 C4.35 6.67 2.7 6.34 1 6 C1 5.34 1 4.68 1 4 C0.01 3.67 -0.98 3.34 -2 3 C-1.34 2.67 -0.68 2.34 0 2 C0 1.34 0 0.68 0 0 Z " fill="#E79F58" transform="translate(76,139)"/>
<path d="M0 0 C0.66 0.33 1.32 0.66 2 1 C1.67 1.66 1.34 2.32 1 3 C1.99 3.33 2.98 3.66 4 4 C-0.68493876 6.48887372 -3.9444214 5.85687773 -9 5 C-8.443125 4.731875 -7.88625 4.46375 -7.3125 4.1875 C-4.90178463 2.99670459 -4.90178463 2.99670459 -2.375 1.3125 C-1.59125 0.879375 -0.8075 0.44625 0 0 Z " fill="#0863A1" transform="translate(154,86)"/>
<path d="M0 0 C1.32 0.33 2.64 0.66 4 1 C4 3.31 4 5.62 4 8 C2.68 8 1.36 8 0 8 C0 5.36 0 2.72 0 0 Z " fill="#F79534" transform="translate(335,136)"/>
<path d="M0 0 C0.33 0 0.66 0 1 0 C1.33 7.26 1.66 14.52 2 22 C1.34 22 0.68 22 0 22 C0 21.01 0 20.02 0 19 C-0.66 19 -1.32 19 -2 19 C-2 18.34 -2 17.68 -2 17 C-1.34 17 -0.68 17 0 17 C0 11.39 0 5.78 0 0 Z " fill="#B79A68" transform="translate(256,119)"/>
<path d="M0 0 C0.33 0 0.66 0 1 0 C1 1.98 1 3.96 1 6 C-0.0625 4.125 -0.0625 4.125 -1 2 C-0.67 1.34 -0.34 0.68 0 0 Z M-10 4 C-7.03 4 -4.06 4 -1 4 C-1 4.33 -1 4.66 -1 5 C-2.423125 5.0928125 -2.423125 5.0928125 -3.875 5.1875 C-5.421875 5.5896875 -5.421875 5.5896875 -7 6 C-8.45291273 8.46255685 -8.45291273 8.46255685 -9 11 C-9.99 10.67 -10.98 10.34 -12 10 C-11.34 10 -10.68 10 -10 10 C-10 8.02 -10 6.04 -10 4 Z " fill="#EE9F47" transform="translate(233,115)"/>
<path d="M0 0 C2.22825644 2.22825644 2.69239369 3.65761628 3.625 6.625 C4.01558594 7.85089844 4.01558594 7.85089844 4.4140625 9.1015625 C4.60742188 9.72804687 4.80078125 10.35453125 5 11 C3.35 11 1.7 11 0 11 C0 7.37 0 3.74 0 0 Z " fill="#E7AB6C" transform="translate(11,137)"/>
<path d="M0 0 C1.98 0 3.96 0 6 0 C6.66 3.96 7.32 7.92 8 12 C5.04816899 9.04816899 4.91336012 6.04488053 4 2 C0.9254644 2.7763932 0.9254644 2.7763932 -1 5 C-0.67 3.35 -0.34 1.7 0 0 Z " fill="#E99F50" transform="translate(140,130)"/>
<path d="M0 0 C2.00720923 0.28674418 4.0085944 0.61866701 6 1 C6 1.66 6 2.32 6 3 C2.81237635 5.12508244 0.73487777 5.5020163 -3 6 C-1.125 1.125 -1.125 1.125 0 0 Z " fill="#0277BE" transform="translate(257,75)"/>
<path d="M0 0 C0.99 0.66 1.98 1.32 3 2 C3.29296875 4.6015625 3.29296875 4.6015625 3.1875 7.625 C3.16042969 8.62789062 3.13335938 9.63078125 3.10546875 10.6640625 C3.07066406 11.43492187 3.03585938 12.20578125 3 13 C3.66 13.33 4.32 13.66 5 14 C4.01 14 3.02 14 2 14 C1.67 11.69 1.34 9.38 1 7 C0.01 7 -0.98 7 -2 7 C-1.34 4.69 -0.68 2.38 0 0 Z " fill="#FBE5BF" transform="translate(20,134)"/>
<path d="M0 0 C-1.423125 0.309375 -1.423125 0.309375 -2.875 0.625 C-6.29166667 1.70833333 -6.29166667 1.70833333 -7.375 5.125 C-7.58125 6.07375 -7.7875 7.0225 -8 8 C-8.33 7.34 -8.66 6.68 -9 6 C-9.66 6 -10.32 6 -11 6 C-10.38722388 3.03824877 -9.74627478 1.61941217 -8 -1 C-4.17406231 -2.27531256 -3.48011144 -2.32007429 0 0 Z " fill="#F0A144" transform="translate(275,120)"/>
<path d="M0 0 C0.56203125 0.31710938 1.1240625 0.63421875 1.703125 0.9609375 C4.15196317 2.06874525 6.08387855 2.38975399 8.75 2.625 C9.54921875 2.69976562 10.3484375 2.77453125 11.171875 2.8515625 C11.77515625 2.90054688 12.3784375 2.94953125 13 3 C13 3.33 13 3.66 13 4 C10.36 4 7.72 4 5 4 C4.67 4.66 4.34 5.32 4 6 C2.02 5.34 0.04 4.68 -2 4 C-1.34 3.67 -0.68 3.34 0 3 C0 2.01 0 1.02 0 0 Z " fill="#0961A1" transform="translate(13,107)"/>
<path d="M0 0 C6.75 1.75 6.75 1.75 9 4 C8.625 6.125 8.625 6.125 8 8 C7.608125 7.54625 7.21625 7.0925 6.8125 6.625 C4.69167513 4.72357081 2.66957765 3.93795972 0 3 C0 2.01 0 1.02 0 0 Z " fill="#FEF1D3" transform="translate(347,137)"/>
<path d="M0 0 C3.96 0 7.92 0 12 0 C12 0.66 12 1.32 12 2 C7.6835078 2.76173392 4.25566547 3.16063604 0 2 C0 1.34 0 0.68 0 0 Z " fill="#FFFAE0" transform="translate(54,132)"/>
<path d="M0 0 C0.33 0.66 0.66 1.32 1 2 C1.99 2.33 2.98 2.66 4 3 C3.401875 3.268125 2.80375 3.53625 2.1875 3.8125 C0.02775192 4.98493467 -1.35790256 6.19369282 -3 8 C-3.66 7.34 -4.32 6.68 -5 6 C-3.35 4.02 -1.7 2.04 0 0 Z " fill="#05609E" transform="translate(70,73)"/>
<path d="M0 0 C0.66 1.32 1.32 2.64 2 4 C-4.625 5 -4.625 5 -8 5 C-8 4.34 -8 3.68 -8 3 C-5.09451118 0.95830515 -3.59857954 0 0 0 Z " fill="#302F2F" transform="translate(305,33)"/>
<path d="M0 0 C1.65 0.33 3.3 0.66 5 1 C4.67 1.66 4.34 2.32 4 3 C3.34 3 2.68 3 2 3 C1.67 4.98 1.34 6.96 1 9 C0.34 9 -0.32 9 -1 9 C-0.67 6.03 -0.34 3.06 0 0 Z " fill="#333333" transform="translate(258,3)"/>
<path d="M0 0 C0.33 0 0.66 0 1 0 C1 5.28 1 10.56 1 16 C0.67 16 0.34 16 0 16 C-0.33 13.36 -0.66 10.72 -1 8 C-1.33 8 -1.66 8 -2 8 C-2 6.02 -2 4.04 -2 2 C-1.34 2 -0.68 2 0 2 C0 1.34 0 0.68 0 0 Z " fill="#E9A158" transform="translate(373,132)"/>
<path d="M0 0 C0.99 0.33 1.98 0.66 3 1 C2.67 2.65 2.34 4.3 2 6 C0.35 6.33 -1.3 6.66 -3 7 C-3.33 5.35 -3.66 3.7 -4 2 C-3.67 2.99 -3.34 3.98 -3 5 C-2.34 5 -1.68 5 -1 5 C-0.67 3.35 -0.34 1.7 0 0 Z " fill="#EE973F" transform="translate(238,120)"/>
<path d="M0 0 C0.66 0 1.32 0 2 0 C4.42857143 6.28571429 4.42857143 6.28571429 3 10 C2.34 8.68 1.68 7.36 1 6 C0.34 6 -0.32 6 -1 6 C-0.67 4.02 -0.34 2.04 0 0 Z " fill="#AEB088" transform="translate(246,114)"/>
<path d="M0 0 C0 0.66 0 1.32 0 2 C0.66 2.33 1.32 2.66 2 3 C-3.34629602 4.0024305 -7.62374766 3.84888195 -13 3 C-13 2.67 -13 2.34 -13 2 C-12.06027344 1.90912109 -12.06027344 1.90912109 -11.1015625 1.81640625 C-9.87566406 1.69072266 -9.87566406 1.69072266 -8.625 1.5625 C-7.81289063 1.48128906 -7.00078125 1.40007812 -6.1640625 1.31640625 C-3.85304959 0.97851447 -2.33455672 0 0 0 Z " fill="#0A66A1" transform="translate(369,108)"/>
<path d="M0 0 C1.65 0.33 3.3 0.66 5 1 C5.33 2.32 5.66 3.64 6 5 C1.545 5.495 1.545 5.495 -3 6 C-3 5.34 -3 4.68 -3 4 C-2.34 4 -1.68 4 -1 4 C-0.67 2.68 -0.34 1.36 0 0 Z " fill="#0760A5" transform="translate(51,107)"/>
<path d="M0 0 C0.33 0 0.66 0 1 0 C1 3.63 1 7.26 1 11 C0.01 11.33 -0.98 11.66 -2 12 C-2.66 9.69 -3.32 7.38 -4 5 C-3.34 5 -2.68 5 -2 5 C-2 6.32 -2 7.64 -2 9 C-1.34 9 -0.68 9 0 9 C0 6.03 0 3.06 0 0 Z " fill="#EC9B50" transform="translate(407,132)"/>
<path d="M0 0 C0.99 0 1.98 0 3 0 C1.7508258 3.45925163 0.32472205 6.14693203 -2 9 C-3 6 -3 6 -1.5625 2.8125 C-1.046875 1.884375 -0.53125 0.95625 0 0 Z " fill="#FEEAC3" transform="translate(192,132)"/>
<path d="M0 0 C1.875 0.25 1.875 0.25 4 1 C5.3125 2.8125 5.3125 2.8125 6 5 C5.625 7.25 5.625 7.25 5 9 C2.67527795 6.14693203 1.2491742 3.45925163 0 0 Z " fill="#FFEEC6" transform="translate(182,132)"/>
<path d="M0 0 C0.99 0.33 1.98 0.66 3 1 C1.625 3 1.625 3 0 5 C-0.66 5 -1.32 5 -2 5 C-2 5.99 -2 6.98 -2 8 C-2.66 8 -3.32 8 -4 8 C-3.50168276 4.31245243 -2.89932357 2.39509338 0 0 Z " fill="#333031" transform="translate(297,25)"/>
<path d="M0 0 C0.33 0 0.66 0 1 0 C1 3.3 1 6.6 1 10 C-0.32 10 -1.64 10 -3 10 C-2.01 6.7 -1.02 3.4 0 0 Z " fill="#E79F58" transform="translate(21,138)"/>
<path d="M0 0 C1.65 0.33 3.3 0.66 5 1 C5 2.32 5 3.64 5 5 C3.02 4.34 1.04 3.68 -1 3 C-0.67 2.01 -0.34 1.02 0 0 Z " fill="#EAA158" transform="translate(78,134)"/>
<path d="M0 0 C0.33 0 0.66 0 1 0 C1 3.96 1 7.92 1 12 C1.66 12 2.32 12 3 12 C2.67 13.32 2.34 14.64 2 16 C1.34 16 0.68 16 0 16 C0 10.72 0 5.44 0 0 Z " fill="#DF9C5D" transform="translate(133,132)"/>
<path d="M0 0 C2.64 0 5.28 0 8 0 C8 0.99 8 1.98 8 3 C2.25 3.125 2.25 3.125 0 2 C0 1.34 0 0.68 0 0 Z " fill="#FBE4BB" transform="translate(104,138)"/>
<path d="M0 0 C3 2 3 2 3.6875 5.125 C3.790625 6.07375 3.89375 7.0225 4 8 C1 7 1 7 -1 6 C-0.67 4.02 -0.34 2.04 0 0 Z " fill="#E59642" transform="translate(247,122)"/>
<path d="M0 0 C0.66 0.33 1.32 0.66 2 1 C0.35 4.63 -1.3 8.26 -3 12 C-3.33 12 -3.66 12 -4 12 C-4.1875 8.625 -4.1875 8.625 -4 5 C-3.01 4.34 -2.02 3.68 -1 3 C-0.67 2.01 -0.34 1.02 0 0 Z " fill="#2FA4B2" transform="translate(261,99)"/>
<path d="M0 0 C0.33 0 0.66 0 1 0 C1.33 5.28 1.66 10.56 2 16 C1.34 16 0.68 16 0 16 C-0.66 14.68 -1.32 13.36 -2 12 C-1.34 12 -0.68 12 0 12 C0 8.04 0 4.08 0 0 Z " fill="#FEE2B4" transform="translate(30,132)"/>
<path d="M0 0 C0.33 1.32 0.66 2.64 1 4 C-2.3 3.34 -5.6 2.68 -9 2 C-5.23312136 0.11656068 -3.97041037 -0.22057835 0 0 Z " fill="#0A64A5" transform="translate(195,71)"/>
<path d="M0 0 C0.33 0 0.66 0 1 0 C1.144375 1.0725 1.28875 2.145 1.4375 3.25 C1.83749442 5.91662949 2.27591924 8.41399729 3 11 C1.0625 10.1875 1.0625 10.1875 -1 9 C-1.33 8.01 -1.66 7.02 -2 6 C-1.34 6 -0.68 6 0 6 C0 4.02 0 2.04 0 0 Z " fill="#FFEAC1" transform="translate(332,137)"/>
<path d="M0 0 C2.64 0 5.28 0 8 0 C8 0.66 8 1.32 8 2 C5.69 2 3.38 2 1 2 C0.67 2.66 0.34 3.32 0 4 C0 2.68 0 1.36 0 0 Z " fill="#FCBF70" transform="translate(280,117)"/>
<path d="M0 0 C0 1.65 0 3.3 0 5 C-4.455 4.01 -4.455 4.01 -9 3 C-9 2.67 -9 2.34 -9 2 C-7.68786298 1.66524067 -6.37527913 1.33223233 -5.0625 1 C-3.96615234 0.7215625 -3.96615234 0.7215625 -2.84765625 0.4375 C-1 0 -1 0 0 0 Z " fill="#09619F" transform="translate(404,48)"/>
<path d="M0 0 C0.66 0 1.32 0 2 0 C2 4.29 2 8.58 2 13 C1.67 13 1.34 13 1 13 C0.93941406 12.38511719 0.87882812 11.77023438 0.81640625 11.13671875 C0.73261719 10.32847656 0.64882813 9.52023438 0.5625 8.6875 C0.48128906 7.88699219 0.40007813 7.08648437 0.31640625 6.26171875 C0.04734307 3.83912821 0.04734307 3.83912821 -1 1 C-0.67 0.67 -0.34 0.34 0 0 Z " fill="#FFFCE6" transform="translate(22,133)"/>
<path d="M0 0 C0.99 0.33 1.98 0.66 3 1 C-0.625 5.875 -0.625 5.875 -4 7 C-2.92598892 4.08482708 -2.22189824 2.22189824 0 0 Z " fill="#BFC05C" transform="translate(268,92)"/>
<path d="M0 0 C2.475 0.495 2.475 0.495 5 1 C5 1.99 5 2.98 5 4 C3.35 4 1.7 4 0 4 C0 2.68 0 1.36 0 0 Z " fill="#DCEDF7" transform="translate(241,41)"/>
<path d="M0 0 C2.5654594 2.5654594 2.54046087 4.47686668 3 8 C2.01 7.67 1.02 7.34 0 7 C-1.17755913 4.05610218 -1.03348696 3.10046087 0 0 Z " fill="#FEEDCB" transform="translate(146,140)"/>
<path d="M0 0 C0.33 0 0.66 0 1 0 C1 1.98 1 3.96 1 6 C-1.31 6 -3.62 6 -6 6 C-2.25 3 -2.25 3 0 3 C0 2.01 0 1.02 0 0 Z " fill="#F1994A" transform="translate(372,137)"/>
<path d="M0 0 C1.32 0.33 2.64 0.66 4 1 C4.33 2.32 4.66 3.64 5 5 C4.01 5 3.02 5 2 5 C1.34 3.35 0.68 1.7 0 0 Z " fill="#FEE7B5" transform="translate(352,132)"/>
<path d="M0 0 C0.33 0 0.66 0 1 0 C1 3.63 1 7.26 1 11 C-1 7 -1 7 -1 3 C-0.67 2.01 -0.34 1.02 0 0 Z " fill="#09AEE5" transform="translate(253,119)"/>
</svg>
